<svg width="39" height="51" viewBox="0 0 39 51" fill="none" xmlns="http://www.w3.org/2000/svg">
<path fill-rule="evenodd" clip-rule="evenodd" d="M11.953 0C13.2493 15.2765 0 20.5359 0 33.9913C0 43.1308 6.52158 50.9316 19.1249 50.9996C31.7281 51.0676 38.2497 41.6199 38.2497 31.9683C38.2497 23.1687 33.868 14.8706 25.6018 9.71118C27.5653 15.251 24.9516 20.3106 22.4122 22.0531C22.561 14.962 20.0216 4.43909 11.953 0ZM21.9638 27.6248C29.9432 36.1014 25.0429 46.7497 18.634 46.7497C14.7346 46.7497 12.7287 44.0616 12.7499 41.2736C12.7903 36.1035 18.566 36.0992 21.9638 27.6248Z" fill="#B11E1E"/>
</svg>
