<svg width="78" height="51" viewBox="0 0 78 51" fill="none" xmlns="http://www.w3.org/2000/svg">
<path fill-rule="evenodd" clip-rule="evenodd" d="M6.36577 14.1653H70.7562C72.0351 14.1653 73.1566 15.0068 73.5069 16.2307L77.0577 28.6748L77.1219 29.1178C77.1219 29.784 76.7138 30.3992 76.0615 30.6478L76.0583 30.651C75.2871 30.9443 74.4163 30.6351 74.0178 29.9147L70.3416 23.3134L69.2876 48.7082C69.233 49.9928 68.1726 51 66.8808 51H66.8776C65.6147 51 64.5768 50.0246 64.4804 48.7751C64.2619 46.0179 63.6802 39.4262 63.5035 36.8156C63.4328 35.7319 62.6327 35.0944 61.765 35.0944C60.9874 35.0944 60.1133 35.7319 60.0394 36.8156C59.8627 39.4262 59.2811 46.0179 59.0626 48.7751C58.9662 50.0246 57.9314 51 56.6654 51H56.6621C55.3703 51 54.3099 49.9928 54.2553 48.7082C53.9789 42.0782 52.8575 20.8622 52.8575 20.8622H47.4943C47.4943 20.8622 46.3728 42.0782 46.0964 48.7082C46.0418 49.9896 44.9814 51 43.6896 51H43.6864C42.4203 51 41.3856 50.0246 41.2892 48.7751C41.0706 46.0179 40.489 39.4262 40.3123 36.8156C40.2384 35.7319 39.3643 35.0944 38.5867 35.0944H38.5738C37.7962 35.0944 36.9189 35.7319 36.8482 36.8156C36.6715 39.4262 36.0899 46.0179 35.8713 48.7751C35.7749 50.0246 34.737 51 33.4741 51H33.4709C32.1791 51 31.1187 49.9928 31.0641 48.7082C30.7877 42.0782 29.6662 20.8622 29.6662 20.8622H24.2645C24.2645 20.8622 23.143 42.0782 22.8667 48.7082C22.812 49.9928 21.7516 51 20.4598 51H20.4566C19.1905 51 18.1558 50.0246 18.0594 48.7751C17.8409 46.0179 17.2592 39.4262 17.0825 36.8156C17.0086 35.7319 16.1346 35.0944 15.3569 35.0944C14.4893 35.0944 13.6891 35.7319 13.6185 36.8156C13.4417 39.4262 12.8601 46.0179 12.6416 48.7751C12.5452 50.0246 11.5072 51 10.2444 51H10.2412C8.94936 51 7.88893 49.9928 7.8343 48.7082L6.7803 23.3134L3.10416 29.9147C2.70569 30.6351 1.83486 30.9443 1.06364 30.651L1.06043 30.6478C0.408104 30.3992 0 29.784 0 29.1178L0.0642683 28.6748L3.61509 16.2307C3.96535 15.0068 5.08683 14.1653 6.36577 14.1653ZM16.0671 0C19.6147 0 22.4939 2.856 22.4939 6.375C22.4939 9.894 19.6147 12.75 16.0671 12.75C12.5195 12.75 9.64024 9.894 9.64024 6.375C9.64024 2.856 12.5195 0 16.0671 0ZM61.0549 0C57.5073 0 54.628 2.856 54.628 6.375C54.628 9.894 57.5073 12.75 61.0549 12.75C64.6025 12.75 67.4817 9.894 67.4817 6.375C67.4817 2.856 64.6025 0 61.0549 0ZM38.5803 0C42.1279 0 45.0071 2.856 45.0071 6.375C45.0071 9.894 42.1279 12.75 38.5803 12.75C35.0326 12.75 32.1534 9.894 32.1534 6.375C32.1534 2.856 35.0326 0 38.5803 0Z" fill="#B11E1E"/>
</svg>
