<svg width="501" height="286" viewBox="0 0 501 286" fill="none" xmlns="http://www.w3.org/2000/svg">
<g clip-path="url(#clip0_19_2)">
<path opacity="0.1" d="M301.178 206.137C310.857 205.585 322.865 199.015 332.202 196.109C343.252 192.678 354.347 189.378 365.485 186.208C404.26 175.165 443.451 165.757 483.058 157.981C486.754 157.254 490.456 156.544 494.164 155.851C488.388 143.36 479.44 132.604 468.212 124.657C468.499 121.923 468.645 119.175 468.65 116.426C468.65 72.9727 433.952 37.7465 391.135 37.7465C377.953 37.7325 364.992 41.1377 353.516 47.6302C323.211 27.6787 283.656 15.6035 240.379 15.6035C178.884 15.6035 124.9 39.9862 94.3098 76.7026L238.076 101.011L326.25 115.913C225.73 118.915 124.9 121.9 24.669 114.852C11.4381 127.665 3.06379 144.679 0.977383 162.986C-1.10903 181.293 3.22193 199.758 13.2301 215.223C13.2301 216.797 13.2958 218.357 13.414 219.904C15.9672 220.636 18.4328 221.346 20.6444 221.811C56.1494 229.317 91.8821 235.6 127.843 240.658C101.343 257.011 69.0714 259.325 38.5034 266.25C53.3057 278.479 73.407 285.974 95.5579 285.974H425.377C461.091 285.974 490.038 261.091 490.038 230.393C495.398 221.548 498.969 211.736 500.549 201.513C434.464 207.899 367.556 202.355 301.178 206.137Z" fill="#B11E1E"/>
<path opacity="0.1" d="M501 188.439C501.035 175.787 498.03 163.312 492.237 152.066C486.445 140.821 478.035 131.134 467.717 123.824C468.002 121.091 468.148 118.345 468.155 115.597C468.155 72.1443 433.439 36.9312 390.64 36.9312C377.457 36.9171 364.495 40.3207 353.017 46.8105C322.711 26.8503 283.153 14.7708 239.876 14.7708C169.482 14.7708 108.889 46.7448 82.0168 92.5954C80.5235 92.5078 79.0213 92.4596 77.5061 92.4596C34.7021 92.4596 -0.0087674 127.686 -0.0087674 171.139C-0.0387694 186.487 4.39208 201.513 12.744 214.386C12.744 253.483 49.6139 285.176 95.0761 285.176H424.904C460.613 285.176 489.561 260.289 489.561 229.591C497.071 217.182 501.029 202.946 501 188.439Z" fill="#B11E1E"/>
<path d="M409.156 140.234C408.53 139.753 407.796 139.431 407.019 139.296C406.2 139.108 405.363 138.99 404.531 138.858L393.749 137.302C392.661 137.1 391.551 137.041 390.447 137.127C389.894 137.172 389.354 137.327 388.861 137.583C388.368 137.839 387.931 138.191 387.574 138.617C387.253 139.014 387.077 139.509 387.075 140.02C387.135 140.534 387.302 141.029 387.566 141.475C387.67 141.683 387.759 141.898 387.833 142.119C387.936 142.615 388.064 143.105 388.218 143.587C388.266 143.692 388.328 143.789 388.402 143.877C388.404 143.901 388.404 143.926 388.402 143.951C388.284 144.556 388.665 145.187 388.494 145.77C388.345 146.27 387.859 146.572 387.552 146.989C387.348 147.284 387.235 147.633 387.227 147.992C387.219 148.352 387.317 148.705 387.509 149.009C387.837 149.518 388.433 149.864 388.603 150.447C388.827 151.214 388.222 151.955 387.684 152.546C386.693 153.636 385.777 154.791 384.942 156.004C384.708 156.303 384.557 156.658 384.504 157.034C384.456 157.797 385.188 158.468 385.061 159.226C384.96 159.822 384.377 160.186 383.874 160.541C382.013 161.768 380.519 163.74 380.37 165.971C379.892 162.422 378.423 159.079 376.131 156.329C375.505 155.575 374.817 154.817 374.559 153.861C374.463 153.48 374.445 153.072 374.314 152.704C373.876 151.543 372.483 151.043 371.874 149.973C371.436 149.22 371.436 148.251 370.893 147.589C370.35 146.927 369.496 146.778 369.028 146.138C368.794 145.705 368.595 145.253 368.432 144.788C368.236 144.409 367.959 144.077 367.622 143.815C367.557 143.764 367.49 143.715 367.42 143.671C367.493 143.606 367.551 143.526 367.591 143.437C367.631 143.348 367.652 143.251 367.653 143.153C367.653 142.641 367.145 142.303 366.702 142.049C366.133 141.725 365.577 141.374 365.034 141.01C365.626 140.734 366.139 140.314 366.527 139.787C367.013 139.002 367.214 138.074 367.096 137.158C367.067 136.418 366.791 135.71 366.312 135.146C366.037 134.852 365.691 134.642 365.402 134.366C364.653 133.634 364.399 132.551 364.088 131.552C363.676 130.237 363.032 128.856 361.832 128.159C361.254 127.822 360.58 127.664 360.015 127.309C359.45 126.954 358.977 126.283 359.174 125.639C359.305 125.201 359.713 124.898 359.989 124.526C360.318 124.044 360.444 123.452 360.34 122.877C360.236 122.303 359.91 121.793 359.432 121.458C359.108 121.252 358.71 121.072 358.644 120.695C358.391 120.629 358.161 120.493 357.981 120.302C357.801 120.111 357.679 119.874 357.628 119.617C357.53 119.101 357.53 118.572 357.628 118.056C357.742 117.241 357.854 116.429 357.965 115.619C358.158 115.7 358.365 115.741 358.574 115.741C358.783 115.741 358.99 115.7 359.183 115.619C359.562 116.235 360.002 116.811 360.497 117.338C361.83 118.914 362.869 120.718 363.562 122.663C363.812 123.364 364.066 124.149 364.714 124.521C364.937 124.648 365.191 124.714 365.41 124.85C365.68 125.038 365.912 125.276 366.094 125.551C366.619 126.248 367.145 126.941 367.666 127.638L367.692 127.743C367.706 127.805 367.73 127.864 367.762 127.918C367.859 128.027 367.993 128.096 368.139 128.111C369.75 128.484 371.559 128.825 372.956 127.944C374.217 127.156 374.769 125.595 375.838 124.552C376.595 123.811 377.668 123.237 377.883 122.194C377.627 122.115 377.376 122.023 377.13 121.918C377.349 121.699 377.567 121.444 377.865 121.155C378.298 120.731 378.688 120.266 379.03 119.766C379.4 119.149 379.694 118.49 379.906 117.802C380.75 115.394 381.596 112.985 382.446 110.575C382.849 109.435 383.252 108.287 383.76 107.178C384.285 105.977 384.907 104.824 385.481 103.645C386.962 100.579 388.104 97.3602 388.888 94.0463C389.027 93.5941 389.073 93.1185 389.024 92.6481C388.901 91.8898 388.328 91.2937 387.78 90.7546C387.23 90.1582 386.602 89.6379 385.915 89.2074C385.569 88.9925 385.185 88.8485 384.783 88.7838C384.382 88.7191 383.971 88.7349 383.576 88.8305C382.455 89.1592 381.75 90.3076 381.491 91.4603C381.233 92.613 381.329 93.8008 381.22 94.9667C381.062 96.6542 380.484 98.2846 380.344 99.9765C380.27 100.954 380.344 101.944 380.226 102.922C380.01 104.201 379.565 105.431 378.912 106.551C377.492 109.223 375.569 111.595 373.249 113.537C372.982 113.761 372.706 113.976 372.444 114.217C372.444 114.028 372.474 113.836 372.501 113.647C372.31 113.697 372.124 113.763 371.944 113.844C371.966 113.623 371.944 113.399 371.879 113.187C371.528 112.139 369.969 111.872 369.689 110.807C369.642 110.543 369.617 110.277 369.615 110.009C369.523 109.076 368.888 108.287 368.669 107.379C368.467 106.542 368.62 105.626 368.231 104.85C367.898 104.365 367.507 103.924 367.066 103.535C366.54 102.934 366.16 102.218 365.958 101.445C365.901 101.23 365.848 101.006 365.787 100.792C365.854 100.305 365.799 99.8101 365.629 99.3497C365.231 98.3591 364.202 97.7236 363.829 96.7199C363.54 95.9397 363.667 94.9667 363.12 94.3618C362.829 94.0728 362.473 93.8579 362.082 93.7351C360.078 92.9538 357.974 92.4567 355.833 92.258C354.633 92.1484 353.31 92.0871 352.452 91.2411C351.449 90.2593 351.401 88.493 350.227 87.7347C349.194 87.0641 347.731 87.5594 346.929 88.5018C346.809 88.6404 346.698 88.7868 346.597 88.9401C346.45 88.3526 346.419 87.7424 346.505 87.143C346.505 86.994 346.535 86.8406 346.548 86.7047C348.526 86.058 350.209 84.728 351.296 82.9529C351.296 82.9529 351.296 82.9529 351.296 82.9792L351.348 83.115C351.475 83.435 351.677 83.7418 351.974 83.7769C352.173 83.7745 352.364 83.705 352.517 83.5796C352.782 83.3959 353.025 83.1843 353.244 82.9485C353.355 82.8258 353.46 82.6987 353.56 82.5672C353.762 82.2934 353.935 81.9997 354.077 81.6906C354.294 81.2254 354.442 80.7306 354.514 80.2223C354.593 79.7138 354.602 79.1923 354.69 78.6838C354.771 78.2903 354.878 77.9023 355.009 77.5223C355.053 77.3952 355.097 77.2681 355.136 77.141C355.176 77.0139 355.233 76.843 355.276 76.7027C355.551 75.8012 355.698 74.866 355.714 73.9239C355.714 73.7661 355.714 73.6083 355.714 73.4505C355.698 72.8356 355.56 72.2301 355.307 71.6694C355.055 71.1088 354.693 70.6041 354.243 70.1852C353.49 69.5672 352.491 69.3086 351.939 68.4714C351.58 67.9104 351.501 67.1872 351.291 66.5297C351.064 65.7429 350.621 65.0356 350.013 64.4879C349.404 63.9402 348.655 63.574 347.849 63.431C346.879 63.3245 345.905 63.5925 345.125 64.1805L345.064 64.2287C344.629 64.5606 344.261 64.9709 343.978 65.4384C343.399 65.2789 342.869 64.9776 342.436 64.5618C341.998 64.1542 341.661 63.6413 341.219 63.2469C340.805 62.868 340.298 62.6071 339.749 62.4915C339.201 62.3758 338.632 62.4097 338.101 62.5894C337.554 62.8087 337.066 63.1546 336.679 63.5988C336.292 64.043 336.015 64.5728 335.871 65.1447C335.631 66.0476 335.674 67.0864 335.171 67.8403C334.781 68.4276 334.142 68.7169 333.695 69.2516C333.417 69.5902 333.228 69.9922 333.143 70.4219C333.09 70.6621 333.065 70.9078 333.069 71.1538C333.069 71.2634 333.069 71.373 333.095 71.4782C333.095 71.4782 333.095 71.5132 333.095 71.5308C333.11 71.6509 333.135 71.7696 333.169 71.8858C333.294 72.3301 333.517 72.7406 333.822 73.0867C334.111 73.4182 334.472 73.6791 334.877 73.8494C335.043 73.914 335.213 73.9681 335.385 74.0115L335.907 74.1299L336.09 74.1737C335.462 75.3555 335.112 76.6661 335.07 78.0044C335.027 79.3426 335.293 80.6728 335.845 81.8922C335.845 82.0149 335.815 82.1376 335.801 82.2604C335.73 83.9862 335.806 85.715 336.029 87.4279C336.09 88.1073 336.125 88.8568 335.709 89.3959C335.52 89.608 335.307 89.7976 335.074 89.9613C335.311 89.6545 335.552 89.3521 335.797 89.0496C335.18 88.4272 334.203 88.3484 333.327 88.4097C331.632 88.5364 329.986 89.0395 328.51 89.8824C327.529 90.4478 326.522 91.1973 325.4 91.0658C324.739 90.9913 324.087 90.6275 323.443 90.8028C323.081 90.951 322.743 91.1519 322.44 91.3989C322.2 91.5709 321.911 91.6601 321.617 91.6531C320.929 90.8072 319.865 90.2331 319.042 89.5449C318.105 88.7101 317.247 87.7901 316.48 86.7968C315.061 85.083 313.646 83.3649 312.254 81.6336C311.08 80.1784 309.875 78.6049 309.67 76.7421C309.649 76.5574 309.638 76.3715 309.639 76.1855C309.668 75.3004 309.779 74.42 309.972 73.5557C310.024 73.347 310.024 73.1288 309.972 72.9202C309.84 72.4819 309.337 72.3197 308.903 72.2233C308.96 71.8858 309 71.5395 309.022 71.2108C309.267 67.4414 309 63.6107 309.797 59.9202C310.099 58.5001 310.594 57.0624 311.614 56.0324C313.213 54.4151 315.888 54.025 317.115 52.1096C318.139 50.5142 317.732 48.257 316.445 46.85C315.157 45.4431 313.173 44.8689 311.286 44.939C310.756 44.9209 310.233 45.0613 309.784 45.3423C309.363 45.7157 309.049 46.1935 308.873 46.7273L306.994 51.2988C306.449 52.489 305.99 53.7164 305.619 54.9718C305.093 56.8915 304.975 58.9164 304.559 60.8537C304.559 62.344 303.6 64.2024 303.074 65.5742C302.487 67.1171 301.852 68.6424 301.323 70.2159C301.191 70.6103 300.731 71.7806 300.447 72.8457C300.339 72.9083 300.239 72.9834 300.149 73.0692C299.92 73.3625 299.712 73.6715 299.527 73.994C299.129 74.52 298.48 74.8005 298.042 75.3089C297.604 75.8173 297.513 76.7509 298.121 77.0051C298.245 77.0467 298.373 77.0746 298.502 77.0884C298.582 77.0951 298.661 77.1083 298.739 77.1278C299.396 77.3119 299.654 78.1403 299.558 78.8241C299.461 79.5078 299.12 80.139 299.063 80.8227C298.945 82.0324 299.654 83.1589 300.337 84.1757C301.044 85.278 301.826 86.3309 302.676 87.3271C303.293 88.0196 303.99 88.642 304.611 89.3082C306.981 91.7452 308.864 94.5941 310.992 97.2415C311.758 98.2406 312.629 99.1546 313.589 99.9677C314.216 100.459 314.873 100.911 315.556 101.322L319.217 103.645C319.632 103.95 320.102 104.171 320.601 104.298C320.763 104.32 320.928 104.32 321.091 104.298C321.113 104.408 321.131 104.513 321.157 104.622C321.441 105.771 322.068 106.814 322.138 107.984C322.208 109.154 322.103 110.351 322.186 111.534C322.265 112.626 322.506 113.726 322.567 114.8C322.69 116.869 322.182 118.911 321.691 120.936C320.951 123.899 320.504 126.923 319.063 129.61C318.661 130.351 318.188 131.105 318.188 131.951C318.188 132.051 318.188 132.157 318.214 132.257L317.557 132.63C317.364 132.739 317.172 132.849 316.996 132.963C316.164 133.506 315.275 134.107 314.934 135.045C314.658 135.803 314.785 136.671 314.452 137.407C314.436 137.44 314.419 137.473 314.399 137.504C314.049 138.188 313.353 138.696 313.195 139.445C313.077 140.02 313.305 140.629 313.195 141.199C313.195 141.199 313.195 141.199 313.195 141.221C313.095 141.507 313.016 141.8 312.959 142.097C312.954 142.194 312.963 142.292 312.985 142.386C313.068 142.719 313.252 143.017 313.51 143.241C313.668 143.393 313.84 143.529 314.023 143.649C314.21 143.771 314.402 143.885 314.601 143.991L314.715 144.052C314.881 144.14 315.048 144.223 315.218 144.302L315.332 144.35C315.529 144.438 315.731 144.517 315.932 144.587L316.072 144.631C316.23 144.683 316.392 144.731 316.554 144.771L316.664 144.806L316.764 144.828L317.202 144.92L317.364 144.951C317.557 144.983 317.754 145.009 317.955 145.029H318.131C318.28 145.029 318.424 145.051 318.569 145.056H318.774C318.928 145.056 319.077 145.056 319.212 145.056H319.37C319.576 145.056 319.782 145.025 319.987 144.999H320.053C320.237 144.972 320.421 144.942 320.605 144.902L320.745 144.872C320.916 144.832 321.087 144.793 321.257 144.74L321.349 144.714C321.555 144.652 321.761 144.587 321.963 144.508C322.66 144.221 323.336 143.886 323.986 143.504C324.424 143.263 324.862 143.018 325.3 142.794C325.624 142.63 325.958 142.484 326.298 142.356C327.126 142.002 328.027 141.851 328.926 141.917C329.369 141.978 329.808 142.067 330.24 142.185C330.24 142.233 330.24 142.281 330.24 142.329C330.596 144.433 330.948 146.537 331.295 148.641C331.868 148.228 332.475 147.863 333.108 147.55C332.99 147.867 332.912 148.199 332.876 148.536C332.85 148.797 332.85 149.06 332.876 149.32C332.915 149.737 333.003 150.197 332.753 150.526C332.6 150.727 332.315 150.841 332.232 151.069C332.171 151.302 332.157 151.545 332.188 151.784C332.17 152.056 332.055 152.313 331.864 152.508C331.673 152.702 331.418 152.822 331.146 152.844C331.272 153.197 331.274 153.582 331.154 153.937C331.034 154.291 330.799 154.595 330.485 154.799C330.302 154.887 330.131 154.999 329.977 155.132C329.827 155.326 329.726 155.553 329.683 155.794C329.105 157.965 327.914 159.923 326.254 161.435C325.632 161.925 325.063 162.48 324.56 163.092C324.248 163.565 323.991 164.073 323.793 164.604C322.625 167.462 321.44 170.321 320.237 173.181C319.571 174.781 318.923 176.407 318.713 178.13C318.188 182.855 313.983 186.861 314.772 191.551C314.931 192.722 315.403 193.829 316.138 194.755C317.014 195.811 318.328 196.416 319.642 196.907C323.018 198.222 326.578 198.94 330.126 199.664L335.696 200.808C336.789 201.059 337.899 201.235 339.016 201.334C340.36 201.426 341.74 201.298 343.049 201.64C343.859 201.851 344.635 202.241 345.471 202.285C346.189 202.324 347.074 202.171 347.499 202.758C347.923 203.345 347.595 204.121 347.998 204.643C348.646 205.471 350.227 204.643 350.932 205.423C351.125 205.723 351.272 206.049 351.37 206.392C351.477 206.603 351.626 206.791 351.808 206.944C351.851 207.191 351.868 207.442 351.861 207.693C351.769 208.711 351.557 209.715 351.23 210.682C350.704 212.462 350.18 214.243 349.658 216.025C349.458 216.655 349.312 217.3 349.22 217.954C349.187 218.272 349.187 218.592 349.22 218.909C349.312 219.878 349.868 220.877 350.792 221.193C351.509 221.383 352.271 221.288 352.92 220.93C353.547 220.603 354.134 220.206 354.672 219.747C355.642 219.012 356.494 218.134 357.199 217.143C359.389 213.865 358.679 209.429 360.216 205.804C361.237 203.385 363.225 201.421 363.886 198.87C364.041 198.385 364.059 197.866 363.939 197.371C363.663 196.495 362.73 195.995 361.859 195.679H361.819C361.103 195.424 360.372 195.215 359.63 195.053C359.446 195.013 359.257 194.983 359.069 194.952C358.652 194.613 358.321 194.18 358.101 193.69C358.067 193.429 357.998 193.174 357.895 192.931C357.826 192.827 357.732 192.741 357.622 192.68C357.513 192.619 357.39 192.585 357.265 192.581C356.827 192.537 356.24 192.695 355.763 192.66C354.786 192.589 354.138 191.63 353.262 191.187C352.386 190.744 351.436 190.854 350.503 190.92C350.169 190.965 349.83 190.944 349.504 190.858C349.115 190.679 348.76 190.434 348.453 190.135C347.914 189.715 347.285 189.427 346.616 189.292C345.946 189.157 345.254 189.18 344.595 189.359C344.176 189.529 343.732 189.629 343.281 189.657C342.427 189.609 341.823 188.846 341.192 188.268C339.467 186.686 337.01 186.269 334.917 185.23C334.596 185.111 334.329 184.881 334.163 184.582C333.923 183.986 334.466 183.389 334.956 182.982L338.556 179.988C342.497 176.71 347.424 174.242 349.255 169.434C349.446 168.789 349.742 168.181 350.131 167.633C350.272 167.465 350.436 167.318 350.617 167.194C351.413 166.678 352.378 166.489 353.31 166.668C354.446 166.923 355.522 167.393 356.481 168.053C358.049 169.003 359.574 170.026 361.057 171.121C362.526 172.172 363.924 173.32 365.24 174.558C367.539 176.749 369.452 179.348 371.594 181.711C373.736 184.073 376.184 186.278 379.157 187.409C382.131 188.54 385.726 188.491 388.279 186.593C391.227 184.402 392.173 180.484 392.917 176.89C394.559 175.303 395.054 172.888 395.856 170.753C396.359 169.399 397.003 168.123 397.546 166.774C398.194 165.187 398.702 163.548 399.21 161.913C399.786 160.271 400.177 158.57 400.375 156.842C400.585 154.111 399.854 151.205 400.62 148.641C401.632 148.417 402.552 147.848 403.546 147.515C405.026 147.028 406.611 147.107 408.179 147.116H408.28C408.82 147.173 409.364 147.045 409.822 146.752C410.347 146.314 410.43 145.564 410.457 144.885C410.518 143.206 410.413 141.321 409.156 140.234ZM345.703 65.469C345.341 65.5587 344.966 65.5854 344.595 65.548L345.703 65.469Z" fill="url(#paint0_linear_19_2)"/>
<path d="M347.429 93.1959C346.898 93.6466 346.277 93.9771 345.607 94.1645L342.502 95.2778C340.816 95.8826 339.055 96.4919 337.277 96.2727C336.283 96.15 332.022 95.5232 331.378 94.7474C330.397 93.5465 333.835 91.7801 335.009 90.7677C335.275 90.5763 335.521 90.359 335.744 90.119C336.182 89.5843 336.125 88.8348 336.064 88.1598C335.841 86.4498 335.765 84.7239 335.836 83.001C335.871 82.5902 335.929 82.1819 336.012 81.7781C336.45 79.7619 338.324 80.4983 339.804 81.033C341.586 81.6123 343.309 82.3593 344.95 83.264C345.45 83.5219 345.884 83.8907 346.22 84.3422C346.868 85.324 346.61 86.6126 346.505 87.8486C346.413 88.8085 346.417 89.7289 347.017 90.4258C347.319 90.6922 347.596 90.9857 347.845 91.3024C347.985 91.6214 348.02 91.9767 347.945 92.3171C347.87 92.6574 347.69 92.9651 347.429 93.1959Z" fill="#BE6F72"/>
<path d="M304.537 61.6075C304.975 59.6659 305.071 57.6628 305.597 55.7387C305.968 54.4876 306.427 53.2646 306.972 52.0789L308.903 47.5688C309.08 47.0362 309.394 46.5599 309.814 46.1881C310.265 45.909 310.787 45.7688 311.316 45.7849C313.204 45.7148 315.188 46.3021 316.475 47.6915C317.763 49.0809 318.17 51.3294 317.145 52.9204C315.919 54.8358 313.243 55.2215 311.645 56.8344C310.624 57.8645 310.13 59.2977 309.827 60.7134C309.03 64.3951 309.297 68.2127 309.052 71.9734C308.973 73.1436 308.746 74.4804 307.738 75.0853C307.13 75.3838 306.453 75.5154 305.776 75.4666L302.904 75.5148C302.422 75.5148 300.674 75.8173 300.355 75.4535C299.794 74.8179 301.073 71.6534 301.305 70.9477C301.822 69.383 302.457 67.8577 303.057 66.3193C303.578 64.9474 304.537 63.0934 304.537 61.6075Z" fill="#BE6F72"/>
<path d="M363.856 199.304C363.194 201.837 361.206 203.81 360.186 206.225C358.649 209.841 359.341 214.263 357.168 217.533C356.464 218.526 355.612 219.406 354.641 220.141C354.104 220.599 353.516 220.994 352.89 221.32C352.24 221.678 351.478 221.773 350.761 221.583C349.837 221.267 349.281 220.268 349.189 219.304C349.156 218.988 349.156 218.669 349.189 218.353C349.281 217.7 349.428 217.056 349.627 216.428C350.153 214.655 350.677 212.878 351.199 211.099C351.526 210.134 351.738 209.133 351.83 208.118C351.887 207.014 351.186 205.576 351.484 204.546C351.62 204.082 352.128 203.67 352.36 203.279C352.689 202.718 352.943 202.115 353.113 201.487C353.472 200.264 353.717 198.958 354.471 197.928C354.962 197.317 355.537 196.778 356.179 196.328C356.652 195.913 357.207 195.601 357.808 195.412C358.391 195.309 358.989 195.338 359.559 195.495C360.302 195.654 361.034 195.862 361.749 196.118H361.789C362.664 196.433 363.593 196.92 363.869 197.805C364.003 198.296 363.998 198.815 363.856 199.304Z" fill="#3F3D56"/>
<path d="M410.452 145.42C410.426 146.099 410.343 146.857 409.817 147.282C409.36 147.575 408.816 147.704 408.276 147.646H408.157C406.594 147.646 405.004 147.558 403.524 148.045C402.399 148.418 401.365 149.101 400.191 149.237C398.575 149.421 397.056 148.536 395.624 147.764C394.275 147.037 392.891 146.379 391.476 145.792C390.548 145.411 388.652 145.165 388.205 144.148C388.052 143.667 387.923 143.179 387.82 142.685C387.746 142.464 387.657 142.248 387.552 142.04C387.29 141.596 387.123 141.102 387.062 140.589C387.064 140.079 387.24 139.584 387.561 139.187C387.918 138.764 388.356 138.415 388.848 138.162C389.34 137.908 389.878 137.755 390.43 137.71C391.533 137.624 392.643 137.683 393.732 137.885L404.514 139.437C405.346 139.555 406.182 139.673 407.001 139.875C407.779 140.01 408.512 140.332 409.138 140.813C410.413 141.882 410.518 143.763 410.452 145.42Z" fill="#3F3D56"/>
<path d="M400.975 148.225C399.661 150.999 400.607 154.282 400.371 157.35C400.172 159.074 399.782 160.771 399.206 162.408C398.698 164.038 398.19 165.673 397.542 167.256C396.999 168.571 396.355 169.885 395.851 171.227C395.05 173.366 394.538 175.772 392.913 177.363C392.168 180.948 391.222 184.867 388.275 187.041C385.713 188.934 382.144 189 379.153 187.856C376.162 186.712 373.731 184.52 371.59 182.158C369.448 179.795 367.534 177.223 365.235 175.022C363.917 173.785 362.517 172.638 361.044 171.59C359.561 170.512 358.035 169.498 356.468 168.549C355.508 167.891 354.432 167.423 353.297 167.168C352.365 166.989 351.4 167.177 350.604 167.694C350.423 167.818 350.259 167.965 350.118 168.132C349.728 168.678 349.432 169.286 349.242 169.929C347.402 174.724 342.467 177.188 338.525 180.457L334.926 183.442C334.435 183.85 333.892 184.446 334.133 185.037C334.299 185.337 334.566 185.567 334.886 185.686C336.979 186.721 339.436 187.137 341.162 188.715C341.792 189.293 342.397 190.056 343.251 190.1C343.702 190.073 344.145 189.974 344.564 189.806C345.223 189.628 345.915 189.605 346.584 189.738C347.254 189.872 347.883 190.159 348.423 190.578C348.729 190.877 349.085 191.122 349.474 191.301C349.799 191.387 350.139 191.408 350.472 191.362C351.405 191.296 352.395 191.213 353.231 191.63C354.068 192.046 354.755 193.028 355.732 193.098C356.209 193.133 356.779 192.975 357.234 193.019C357.359 193.023 357.482 193.057 357.592 193.118C357.701 193.179 357.795 193.265 357.865 193.37C357.967 193.61 358.036 193.864 358.07 194.123C358.25 194.741 358.854 195.118 359.249 195.627C359.853 196.407 359.94 197.468 359.879 198.454C359.681 201.537 358.308 204.427 356.043 206.527C355.4 207.185 354.58 207.642 353.682 207.842C353.233 207.936 352.765 207.887 352.346 207.7C351.926 207.514 351.576 207.2 351.344 206.804C351.246 206.462 351.098 206.137 350.906 205.839C350.201 205.063 348.62 205.887 347.972 205.059C347.569 204.542 347.858 203.713 347.472 203.179C347.087 202.644 346.159 202.74 345.445 202.71C344.608 202.666 343.833 202.271 343.023 202.065C341.709 201.724 340.334 201.851 338.99 201.759C337.872 201.66 336.763 201.484 335.67 201.233L330.099 200.093C326.552 199.37 322.992 198.638 319.615 197.345C318.323 196.854 317.023 196.249 316.112 195.197C315.377 194.273 314.905 193.168 314.745 191.998C313.953 187.321 318.157 183.324 318.687 178.612C318.875 176.894 319.563 175.272 320.211 173.677C321.399 170.825 322.584 167.972 323.767 165.117C323.958 164.585 324.208 164.077 324.511 163.6C325.015 162.99 325.584 162.436 326.206 161.948C327.866 160.441 329.056 158.487 329.635 156.32C329.678 156.079 329.779 155.852 329.929 155.658C330.084 155.528 330.254 155.418 330.437 155.329C330.749 155.126 330.985 154.823 331.105 154.469C331.225 154.115 331.222 153.731 331.098 153.379C331.37 153.357 331.625 153.237 331.816 153.042C332.007 152.848 332.122 152.591 332.14 152.318C332.108 152.081 332.123 151.84 332.184 151.608C332.289 151.38 332.552 151.266 332.705 151.065C332.955 150.736 332.867 150.276 332.828 149.864C332.801 149.603 332.801 149.34 332.828 149.079C332.924 148.151 333.338 147.285 334.001 146.629C335.048 145.599 336.537 145.867 337.982 145.621C339.424 145.31 340.832 144.859 342.187 144.276C345.986 142.777 349.987 141.851 354.059 141.527C358.151 141.205 362.26 141.86 366.05 143.438C366.601 143.662 367.121 143.957 367.596 144.315C367.933 144.575 368.209 144.906 368.406 145.284C368.567 145.748 368.767 146.198 369.001 146.629C369.47 147.269 370.355 147.475 370.867 148.08C371.379 148.685 371.423 149.706 371.848 150.456C372.457 151.525 373.867 152.02 374.287 153.182C374.419 153.55 374.436 153.953 374.533 154.335C374.769 155.29 375.478 156.044 376.105 156.798C378.401 159.546 379.871 162.89 380.344 166.44C380.484 164.218 381.977 162.25 383.847 161.023C384.351 160.694 384.934 160.33 385.034 159.734C385.161 158.981 384.43 158.31 384.478 157.543C384.531 157.168 384.682 156.815 384.916 156.517C385.751 155.307 386.667 154.154 387.658 153.068C388.196 152.476 388.801 151.753 388.577 150.973C388.406 150.39 387.811 150.048 387.482 149.54C387.291 149.236 387.193 148.883 387.2 148.525C387.208 148.166 387.322 147.818 387.526 147.523C387.833 147.107 388.319 146.805 388.468 146.309C388.639 145.726 388.258 145.095 388.376 144.495C388.536 144.014 388.854 143.601 389.278 143.324C389.859 142.795 390.52 142.36 391.235 142.036C392.392 141.597 393.679 141.76 394.905 141.931C396.955 142.216 399.254 142.654 400.41 144.372C401.15 145.446 401.527 147.076 400.975 148.225Z" fill="#65617D"/>
<path opacity="0.1" d="M410.452 145.42C410.426 146.099 410.343 146.857 409.817 147.282C409.359 147.575 408.816 147.704 408.276 147.646H408.157C408.337 146.734 409.445 146.213 409.638 145.288C409.671 145.004 409.645 144.716 409.562 144.442C409.479 144.169 409.341 143.915 409.156 143.697C408.219 142.43 406.712 141.729 405.214 141.216C400.983 139.764 396.45 139.425 392.05 140.23C390.854 140.425 389.689 140.783 388.59 141.295C388.226 141.523 387.875 141.772 387.539 142.04C387.277 141.596 387.109 141.102 387.049 140.589C387.051 140.079 387.227 139.584 387.548 139.187C387.905 138.764 388.343 138.415 388.835 138.162C389.327 137.908 389.865 137.755 390.417 137.71C391.52 137.624 392.63 137.683 393.719 137.885L404.501 139.437C405.333 139.555 406.169 139.673 406.988 139.875C407.766 140.01 408.499 140.332 409.125 140.813C410.413 141.882 410.518 143.763 410.452 145.42Z" fill="black"/>
<path opacity="0.1" d="M363.856 199.304C363.194 201.838 361.206 203.81 360.186 206.225C358.649 209.841 359.34 214.263 357.168 217.533C356.464 218.526 355.612 219.406 354.641 220.141C354.104 220.599 353.516 220.994 352.89 221.32C352.24 221.678 351.478 221.773 350.761 221.583C349.837 221.267 349.281 220.268 349.189 219.304C349.156 218.988 349.156 218.669 349.189 218.353L349.215 218.423C349.596 219.343 350.218 220.308 351.199 220.47C351.567 220.496 351.937 220.447 352.285 220.324C352.633 220.201 352.952 220.007 353.223 219.755C354.668 218.594 355.509 216.863 356.31 215.193C356.937 213.988 357.433 212.72 357.79 211.41C357.965 210.665 358.049 209.902 358.228 209.157C359.06 205.537 361.894 202.583 362.52 198.914C362.571 198.662 362.583 198.403 362.555 198.147C362.472 197.813 362.346 197.492 362.178 197.192C362.026 196.852 361.914 196.496 361.845 196.131C362.721 196.446 363.65 196.933 363.926 197.818C364.039 198.311 364.015 198.825 363.856 199.304Z" fill="black"/>
<path opacity="0.1" d="M357.243 193.019C356.837 194.079 356.155 195.012 355.268 195.719C354.021 196.669 352.561 197.301 351.015 197.56C350.296 197.743 349.541 197.734 348.826 197.533C347.853 197.196 347.153 196.284 346.159 196.021C345.449 195.828 344.687 195.999 343.969 195.894C342.677 195.714 341.674 194.728 340.632 193.939C337.439 191.537 333.248 190.762 330.056 188.36C329.913 188.272 329.796 188.15 329.714 188.005C329.653 187.847 329.63 187.677 329.648 187.509C329.66 186.053 329.987 184.616 330.607 183.297C331.115 182.378 331.72 181.515 332.412 180.725C335.271 177.218 338.144 173.685 341.569 170.727C343.005 169.487 344.573 168.329 346.386 167.768C347.394 167.457 349.382 167.163 350.608 167.689C350.427 167.813 350.264 167.961 350.122 168.128C349.732 168.674 349.436 169.281 349.246 169.925C347.402 174.724 342.467 177.187 338.525 180.457L334.926 183.442C334.435 183.85 333.892 184.446 334.133 185.037C334.298 185.337 334.566 185.567 334.886 185.686C336.979 186.72 339.436 187.137 341.162 188.715C341.792 189.293 342.397 190.056 343.251 190.1C343.702 190.073 344.145 189.974 344.564 189.806C345.223 189.628 345.915 189.605 346.584 189.738C347.254 189.872 347.883 190.159 348.423 190.578C348.729 190.877 349.085 191.121 349.474 191.301C349.799 191.387 350.139 191.408 350.472 191.362C351.405 191.296 352.395 191.213 353.231 191.629C354.068 192.046 354.755 193.028 355.732 193.098C356.218 193.133 356.787 192.966 357.243 193.019Z" fill="black"/>
<path d="M316.966 133.533C316.134 134.068 315.249 134.672 314.907 135.602C314.627 136.36 314.759 137.228 314.421 137.964C314.084 138.7 313.326 139.213 313.16 140.002C313.042 140.576 313.274 141.181 313.16 141.755C313.061 142.054 312.98 142.358 312.919 142.667C312.875 143.32 313.436 143.85 313.983 144.214C315.149 144.973 316.476 145.447 317.858 145.6C319.24 145.752 320.638 145.578 321.941 145.091C323.11 144.652 324.165 143.938 325.287 143.377C326.38 142.747 327.63 142.443 328.891 142.5C329.613 142.579 330.305 142.842 331.028 142.939C331.385 143.009 331.753 142.992 332.102 142.888C332.451 142.784 332.769 142.597 333.029 142.343C333.252 142.034 333.402 141.679 333.467 141.304C334.076 138.898 333.8 136.347 333.222 133.927C332.644 131.508 331.768 129.18 331.15 126.774C330.713 124.99 330.375 123.163 329.644 121.475C328.913 119.788 327.682 118.219 325.961 117.574C325.825 117.508 325.671 117.488 325.523 117.517C325.413 117.564 325.315 117.636 325.238 117.728C323.877 119.172 322.851 120.899 322.234 122.786C321.547 124.885 321.358 127.112 320.728 129.22C320.456 130.097 320.106 131.271 319.414 131.942C318.722 132.612 317.75 133.029 316.966 133.533Z" fill="#3F3D56"/>
<path opacity="0.1" d="M333.48 141.291C333.407 141.667 333.25 142.022 333.02 142.329C332.761 142.585 332.443 142.772 332.094 142.875C331.745 142.978 331.376 142.994 331.019 142.921C330.301 142.833 329.609 142.566 328.886 142.483C327.626 142.424 326.375 142.729 325.282 143.359C324.161 143.92 323.092 144.617 321.932 145.069C320.234 145.713 318.379 145.819 316.62 145.371C315.685 145.136 314.797 144.745 313.992 144.214C313.44 143.855 312.884 143.337 312.928 142.667C312.989 142.36 313.07 142.057 313.169 141.76C313.283 141.185 313.055 140.581 313.169 140.006C313.335 139.217 314.097 138.691 314.43 137.964C314.763 137.236 314.636 136.364 314.912 135.606C315.253 134.672 316.142 134.072 316.974 133.533C317.807 132.994 318.796 132.582 319.462 131.929C319.548 131.827 319.626 131.718 319.694 131.604C320.174 130.863 320.526 130.047 320.736 129.189C321.38 127.077 321.555 124.854 322.238 122.75C322.858 120.865 323.885 119.14 325.247 117.697C325.32 117.603 325.417 117.53 325.527 117.486C325.675 117.456 325.829 117.475 325.965 117.539C327.682 118.188 328.913 119.757 329.648 121.444C330.384 123.132 330.695 124.951 331.155 126.739C331.768 129.145 332.648 131.481 333.226 133.896C333.804 136.312 334.089 138.88 333.48 141.291Z" fill="black"/>
<path opacity="0.1" d="M346.505 87.8355C344.445 88.4903 342.217 88.3603 340.248 87.4703C338.278 86.5803 336.707 84.9933 335.836 83.0142C335.871 82.6034 335.929 82.1951 336.012 81.7913C336.45 79.7751 338.324 80.5115 339.804 81.0462C341.586 81.6255 343.309 82.3725 344.95 83.2771C345.45 83.535 345.884 83.9038 346.22 84.3554C346.868 85.324 346.61 86.6126 346.505 87.8355Z" fill="black"/>
<path d="M343.859 87.8091C348.697 87.8091 352.618 83.8844 352.618 79.0431C352.618 74.2018 348.697 70.2771 343.859 70.2771C339.022 70.2771 335.101 74.2018 335.101 79.0431C335.101 83.8844 339.022 87.8091 343.859 87.8091Z" fill="#BE6F72"/>
<path opacity="0.1" d="M367.626 144.552C367.626 145.279 366.641 145.511 365.91 145.472C363.282 145.319 360.711 144.595 358.11 144.815C354.821 145.113 351.799 146.932 348.502 147.098C347.232 147.164 345.94 146.975 344.687 147.208C343.067 147.51 341.622 148.496 339.971 148.637C338.538 148.759 337.124 148.22 335.692 148.277C334.691 148.337 333.715 148.615 332.832 149.092C332.928 148.164 333.343 147.298 334.006 146.642C335.053 145.612 336.542 145.88 337.987 145.634C339.428 145.323 340.836 144.872 342.191 144.289C345.991 142.79 349.992 141.864 354.063 141.54C358.153 141.215 362.261 141.865 366.05 143.438C366.601 143.662 367.121 143.956 367.596 144.315C367.62 144.391 367.63 144.471 367.626 144.552Z" fill="black"/>
<path d="M339.809 95.0498L336.261 93.7349L334.763 93.1827C334.153 92.9267 333.511 92.7556 332.854 92.6742C331.137 92.5427 329.521 93.6867 328.606 95.1462C327.691 96.6058 327.345 98.3458 327.051 100.042C326.649 102.362 326.307 104.691 326.027 107.029C325.725 109.14 325.571 111.269 325.567 113.401C325.668 118.828 326.815 124.179 328.076 129.461C328.694 131.802 329.161 134.182 329.473 136.583C329.578 137.574 329.626 138.569 329.732 139.564C329.845 140.681 330.029 141.786 330.213 142.895L331.269 149.193C332.583 148.26 334.076 147.44 335.692 147.392C337.124 147.339 338.543 147.874 339.971 147.751C341.613 147.615 343.067 146.629 344.687 146.327C345.94 146.094 347.232 146.278 348.506 146.217C351.799 146.05 354.825 144.227 358.11 143.933C360.716 143.697 363.304 144.433 365.914 144.587C366.641 144.63 367.626 144.398 367.626 143.666C367.626 143.158 367.118 142.82 366.676 142.566C364.591 141.31 362.607 139.892 360.742 138.328C359.016 136.96 357.265 135.558 356.078 133.708C353.218 129.259 354.199 123.241 351.76 118.547C349.776 114.734 351.76 109.737 351.76 105.438C351.76 103.294 351.76 101.125 351.256 99.0427C350.941 97.8783 350.549 96.7362 350.083 95.624L348.379 91.3067C348.344 91.1806 348.274 91.0667 348.177 90.978C348.063 90.899 347.927 90.8577 347.788 90.8597C346.765 90.7983 345.756 91.1219 344.959 91.7669C344.157 92.42 343.645 93.358 342.857 94.0373C341.994 94.7868 340.881 95.4443 339.809 95.0498Z" fill="#E3E8F4"/>
<path d="M345.532 92.5604C345.813 91.3594 346.115 90.1103 346.916 89.1723C347.718 88.2343 349.18 87.7391 350.214 88.4097C351.388 89.1723 351.436 90.9343 352.439 91.9161C353.314 92.7576 354.628 92.8233 355.819 92.9329C357.961 93.128 360.065 93.6238 362.069 94.4056C362.46 94.5268 362.816 94.7403 363.107 95.028C363.654 95.6504 363.545 96.6059 363.816 97.3817C364.188 98.381 365.218 99.0165 365.616 100.011C366.054 101.116 365.616 102.352 365.248 103.487C364.587 105.525 364.171 107.642 363.527 109.689C362.883 111.736 361.968 113.752 360.462 115.295C359.796 115.979 358.806 116.61 357.93 116.202L357.593 118.635C357.495 119.149 357.495 119.677 357.593 120.191C357.644 120.448 357.766 120.686 357.946 120.876C358.126 121.067 358.356 121.203 358.609 121.269C358.675 121.646 359.073 121.826 359.397 122.032C359.637 122.195 359.841 122.405 359.999 122.648C360.156 122.892 360.264 123.164 360.316 123.449C360.368 123.735 360.362 124.028 360.3 124.311C360.238 124.594 360.12 124.862 359.954 125.1C359.678 125.472 359.27 125.766 359.139 126.209C358.942 126.849 359.411 127.524 359.98 127.874C360.549 128.225 361.219 128.387 361.797 128.725C362.997 129.417 363.641 130.78 364.053 132.104C364.359 133.103 364.613 134.186 365.366 134.913C365.656 135.189 366.001 135.4 366.277 135.689C366.755 136.254 367.031 136.962 367.061 137.701C367.181 138.617 366.98 139.546 366.492 140.331C365.616 141.584 363.983 141.957 362.551 142.522C360.225 143.478 358.311 145.187 356.262 146.642C355.427 147.315 354.443 147.778 353.393 147.992C351.974 148.181 350.577 147.554 349.15 147.497C348.296 147.505 347.446 147.617 346.618 147.83L343.991 148.4C344.131 146.362 343.01 144.319 342.384 142.378C341.201 138.722 340.982 134.813 341.262 130.982C341.543 127.151 342.322 123.373 343.093 119.612C343.632 116.982 343.579 114.234 344.407 111.679C345.182 109.22 346.29 106.858 346.697 104.298C347.363 100.156 344.595 96.6453 345.532 92.5604Z" fill="#3F3D56"/>
<path d="M365.454 100.665C365.696 101.11 365.866 101.591 365.958 102.089C366.16 102.861 366.54 103.575 367.066 104.175C367.506 104.564 367.898 105.006 368.231 105.49C368.634 106.253 368.48 107.182 368.669 108.015C368.888 108.922 369.523 109.711 369.614 110.645C369.617 110.912 369.642 111.179 369.689 111.442C369.974 112.503 371.533 112.757 371.879 113.818C372.111 114.506 371.712 115.256 371.787 115.979C371.841 116.202 371.854 116.434 371.826 116.663C371.727 116.921 371.553 117.144 371.327 117.302C369.877 118.688 368.874 120.475 368.445 122.435C368.023 124.384 367.802 126.371 367.784 128.365L366.072 126.099C365.89 125.824 365.658 125.586 365.388 125.398C365.169 125.266 364.915 125.201 364.692 125.069C364.044 124.701 363.79 123.921 363.54 123.22C362.847 121.278 361.808 119.479 360.475 117.907C359.778 117.088 358.968 116.264 358.815 115.199C358.769 114.709 358.796 114.216 358.894 113.735C359.332 110.864 359.8 107.923 361.197 105.376C361.85 104.184 362.695 103.106 363.321 101.896C363.742 101.094 364.333 99.0078 365.454 100.665Z" fill="#3F3D56"/>
<path d="M322.252 103.421C322.26 103.79 322.166 104.155 321.98 104.473C321.813 104.668 321.595 104.811 321.35 104.889C321.106 104.966 320.845 104.974 320.596 104.912C320.098 104.786 319.628 104.566 319.212 104.263C317.992 103.492 316.772 102.719 315.551 101.944C314.87 101.533 314.213 101.083 313.585 100.594C312.624 99.7829 311.754 98.8704 310.988 97.8726C308.859 95.2428 306.976 92.3895 304.607 89.9832C303.963 89.3257 303.293 88.6946 302.671 88.0065C301.821 87.0118 301.04 85.9603 300.333 84.8595C299.65 83.847 298.94 82.7249 299.058 81.5152C299.128 80.8315 299.457 80.2003 299.553 79.521C299.65 78.8416 299.391 78.0132 298.734 77.8291C298.657 77.8096 298.578 77.7964 298.498 77.7897C298.368 77.7759 298.24 77.748 298.117 77.7064C297.508 77.4522 297.6 76.5098 298.038 76.0146C298.476 75.5193 299.124 75.2432 299.523 74.6997C299.708 74.3772 299.916 74.0681 300.144 73.7748C300.438 73.5232 300.788 73.3472 301.165 73.262C303.691 72.517 306.363 72.416 308.938 72.9684C309.376 73.0648 309.875 73.2401 310.007 73.6653C310.059 73.8724 310.059 74.0893 310.007 74.2964C309.814 75.1606 309.702 76.0411 309.674 76.9262C309.673 77.1108 309.684 77.2952 309.705 77.4785C309.911 79.3369 311.115 80.9104 312.289 82.3611C313.681 84.0881 315.096 85.8018 316.515 87.5112C317.282 88.5017 318.14 89.4188 319.077 90.2506C319.952 90.9781 321.087 91.5655 321.77 92.499C322.326 93.2529 322.147 94.2829 322.208 95.1902C322.412 97.9297 322.426 100.68 322.252 103.421Z" fill="#3F3D56"/>
<path d="M377.87 121.707C378.302 121.287 378.692 120.824 379.035 120.327C379.403 119.711 379.697 119.053 379.91 118.368L382.45 111.158C382.853 110.018 383.256 108.874 383.764 107.765C384.29 106.569 384.912 105.416 385.485 104.259C386.961 101.214 388.102 98.0172 388.888 94.7256C389.026 94.2734 389.073 93.7979 389.024 93.3274C388.901 92.5692 388.328 91.9775 387.78 91.4384C387.23 90.8433 386.602 90.3244 385.915 89.8955C385.569 89.6806 385.185 89.5366 384.783 89.4719C384.382 89.4072 383.971 89.4231 383.576 89.5186C382.455 89.8473 381.75 90.9957 381.491 92.1484C381.233 93.3011 381.329 94.4802 381.22 95.6548C381.062 97.3379 380.484 98.964 380.344 100.651C380.27 101.629 380.344 102.615 380.226 103.588C380.01 104.866 379.565 106.094 378.912 107.213C377.489 109.878 375.566 112.244 373.249 114.182C372.615 114.651 372.043 115.2 371.55 115.817C371.138 116.433 370.859 117.129 370.731 117.859C370.44 118.971 370.567 120.152 371.086 121.177C371.8 122.396 373.171 122.93 374.48 123.202C376.249 123.57 376.657 122.965 377.87 121.707Z" fill="#BE6F72"/>
<path d="M343.912 66.3412C344.289 65.6322 344.866 65.0499 345.572 64.6672C346.278 64.2845 347.08 64.1182 347.88 64.1892C348.685 64.3319 349.434 64.6974 350.042 65.2443C350.651 65.7912 351.094 66.4976 351.322 67.2836C351.528 67.9366 351.611 68.6598 351.97 69.2209C352.513 70.0668 353.52 70.3122 354.274 70.9258C354.723 71.344 355.085 71.8478 355.338 72.4078C355.591 72.9678 355.729 73.5726 355.745 74.1868C355.787 75.4414 355.589 76.6925 355.163 77.8729C354.982 78.3766 354.835 78.8921 354.725 79.4157C354.637 79.9242 354.628 80.4414 354.549 80.9498C354.452 81.609 354.225 82.2422 353.879 82.812C353.534 83.3818 353.079 83.8768 352.539 84.2677C352.386 84.393 352.194 84.4626 351.996 84.465C351.655 84.4255 351.445 84.0267 351.318 83.6673C350.621 81.6555 350.788 79.1966 349.504 77.5924C348.921 76.9453 348.215 76.4195 347.429 76.0452C347.108 75.8381 346.746 75.7021 346.369 75.6463C345.813 75.6762 345.28 75.8716 344.836 76.2074C343.912 76.8279 342.886 77.2818 341.805 77.5486C341.266 77.6764 340.705 77.6822 340.164 77.5654C339.622 77.4486 339.113 77.2123 338.674 76.8736C338.07 76.3739 337.628 75.6244 336.958 75.2344C336.287 74.8443 335.587 74.8662 334.926 74.5988C334.504 74.4194 334.129 74.1461 333.829 73.7997C333.529 73.4533 333.312 73.043 333.195 72.5999C333.078 72.1569 333.063 71.6929 333.152 71.2433C333.241 70.7937 333.431 70.3703 333.708 70.0054C334.146 69.4795 334.794 69.1814 335.184 68.5985C335.688 67.8446 335.644 66.8102 335.885 65.9073C336.027 65.3361 336.304 64.8071 336.691 64.3642C337.079 63.9213 337.567 63.5773 338.114 63.3608C338.644 63.1804 339.213 63.1459 339.762 63.2608C340.31 63.3757 340.818 63.6357 341.232 64.0138C341.67 64.4083 342.02 64.9167 342.449 65.3287C342.873 65.7347 343.392 66.0276 343.958 66.1808C344.524 66.334 345.12 66.3424 345.69 66.2054" fill="#3F3D56"/>
<path opacity="0.1" d="M351.112 130.855C350.857 131.082 350.676 131.381 350.593 131.712C350.51 132.044 350.529 132.392 350.647 132.713C350.744 132.919 355.263 132.047 355.741 131.981C356.932 131.81 359.021 131.893 359.822 130.802C361.25 128.869 356.827 129.299 356.017 129.369C354.475 129.5 352.285 129.711 351.112 130.855Z" fill="black"/>
<path d="M309.998 74.314C309.805 75.1782 309.694 76.0586 309.665 76.9438C308.352 77.2111 306.985 76.7728 305.724 76.3345L302.102 75.0985C301.882 74.9576 301.616 74.9059 301.359 74.9539C301.102 75.002 300.873 75.1461 300.718 75.3571C300.136 75.962 299.334 77.1103 298.529 77.7897C298.399 77.7759 298.271 77.748 298.148 77.7064C297.539 77.4522 297.631 76.5098 298.069 76.0146C298.507 75.5193 299.155 75.2432 299.553 74.6997C299.739 74.3772 299.946 74.0681 300.175 73.7748C300.468 73.5232 300.819 73.3472 301.196 73.262C303.722 72.517 306.394 72.416 308.969 72.9684C309.407 73.0648 309.906 73.2401 310.038 73.6653C310.08 73.8813 310.067 74.1047 309.998 74.314Z" fill="#3F3D56"/>
<path opacity="0.1" d="M309.998 74.314C309.805 75.1782 309.694 76.0586 309.665 76.9438C308.352 77.2111 306.985 76.7728 305.724 76.3345L302.102 75.0985C301.882 74.9576 301.616 74.9059 301.359 74.9539C301.102 75.002 300.873 75.1461 300.718 75.3571C300.136 75.962 299.334 77.1103 298.529 77.7897C298.399 77.7759 298.271 77.748 298.148 77.7064C297.539 77.4522 297.631 76.5098 298.069 76.0146C298.507 75.5193 299.155 75.2432 299.553 74.6997C299.739 74.3772 299.946 74.0681 300.175 73.7748C300.468 73.5232 300.819 73.3472 301.196 73.262C303.722 72.517 306.394 72.416 308.969 72.9684C309.407 73.0648 309.906 73.2401 310.038 73.6653C310.08 73.8813 310.067 74.1047 309.998 74.314Z" fill="black"/>
<path opacity="0.1" d="M343.128 157.525C343.759 157.736 344.442 158.042 344.656 158.674L339.585 157.385L336.958 156.714C336.493 156.596 334.829 156.46 334.523 156.096C334.085 155.562 335.639 155.93 335.92 155.969C336.769 156.096 337.619 156.228 338.464 156.381C340.058 156.666 341.591 157.135 343.128 157.525Z" fill="black"/>
<path opacity="0.1" d="M345.094 162.018C344.656 161.724 343.4 161.759 342.861 161.632C342.073 161.444 341.297 161.194 340.522 160.953C338.95 160.44 337.391 159.857 335.775 159.48C335.477 159.414 334.461 159.397 334.509 159.02C334.558 158.643 335.525 158.511 335.766 158.494C337.198 158.389 338.985 159.059 340.317 159.537C342.013 160.145 343.62 160.98 345.094 162.018Z" fill="black"/>
<path opacity="0.1" d="M341.88 153.519C340.273 153.081 338.814 152.081 337.159 151.889C336.728 151.905 336.303 151.775 335.955 151.52C335.76 151.329 335.625 151.086 335.565 150.819C336.673 150.762 337.96 151.231 338.968 151.674C339.522 151.912 340.055 152.196 340.562 152.524C340.93 152.748 341.481 153.392 341.88 153.519Z" fill="black"/>
<path d="M372.518 114.274C372.246 116.096 372.639 117.955 373.625 119.511C374.611 121.067 376.124 122.215 377.887 122.746C377.673 123.785 376.6 124.359 375.842 125.1C374.773 126.139 374.222 127.694 372.96 128.483C371.555 129.36 369.746 129.018 368.143 128.65C367.997 128.634 367.863 128.563 367.766 128.453C367.733 128.4 367.71 128.342 367.696 128.282C367.166 126.34 366.82 124.267 367.364 122.321C367.801 120.664 368.853 119.253 369.693 117.789C370.534 116.325 370.613 114.756 372.518 114.274Z" fill="#3F3D56"/>
<path d="M333.362 89.1416C331.667 89.2651 330.021 89.7668 328.545 90.6099C327.564 91.1709 326.557 91.9248 325.435 91.7889C324.774 91.7144 324.122 91.3506 323.478 91.5259C323.115 91.6724 322.777 91.8734 322.475 92.122C322.322 92.2441 322.14 92.3244 321.946 92.3551C321.753 92.3859 321.555 92.366 321.371 92.2974L320.933 98.3634C320.767 100.669 320.605 103.023 321.157 105.271C321.441 106.419 322.068 107.463 322.138 108.628C322.208 109.794 322.103 110.991 322.186 112.17C322.265 113.261 322.506 114.335 322.567 115.426C322.69 117.486 322.182 119.529 321.691 121.532C320.951 124.486 320.504 127.506 319.063 130.18C318.661 130.92 318.188 131.674 318.188 132.516C318.188 132.621 318.188 132.722 318.214 132.823C317.776 133.064 317.369 133.292 316.996 133.528C316.164 134.067 315.275 134.668 314.934 135.601C314.658 136.36 314.785 137.228 314.452 137.96C314.119 138.691 313.357 139.213 313.191 140.002C313.072 140.576 313.3 141.181 313.191 141.755C313.092 142.052 313.011 142.355 312.95 142.662C312.906 143.32 313.462 143.85 314.014 144.21C314.819 144.74 315.707 145.132 316.642 145.367L319.256 134.979C321.64 130.568 323.623 125.952 325.181 121.186C325.627 119.628 326.2 118.109 326.894 116.645C327.389 115.817 327.828 114.956 328.208 114.068C328.606 112.963 328.645 111.767 328.838 110.601C329.067 109.24 329.411 107.901 329.867 106.599C330.34 105.192 330.888 103.79 330.984 102.313C331.129 100.2 330.362 97.969 331.177 96.0141C331.523 95.2825 331.972 94.6048 332.512 94.0023C333.642 92.6173 334.672 91.1665 335.801 89.7815C335.215 89.1547 334.238 89.089 333.362 89.1416Z" fill="#3F3D56"/>
<g opacity="0.1">
<path opacity="0.1" d="M345.703 64.8992L345.156 64.9386L345.094 64.9824C345.299 64.9741 345.503 64.9462 345.703 64.8992Z" fill="black"/>
<path opacity="0.1" d="M355.723 73.9982C355.632 74.8696 355.444 75.7281 355.163 76.5578C354.982 77.0615 354.835 77.577 354.725 78.1006C354.637 78.6091 354.628 79.1263 354.549 79.6347C354.452 80.294 354.225 80.9271 353.879 81.4969C353.534 82.0667 353.079 82.5617 352.539 82.9526C352.386 83.078 352.194 83.1475 351.996 83.1499C351.655 83.1104 351.445 82.7116 351.318 82.3522C350.621 80.3404 350.788 77.8815 349.504 76.2773C348.921 75.6302 348.215 75.1045 347.429 74.7301C347.108 74.523 346.746 74.387 346.369 74.3313C345.813 74.3612 345.28 74.5565 344.836 74.8923C343.912 75.5128 342.886 75.9667 341.806 76.2335C341.266 76.3613 340.705 76.3671 340.164 76.2503C339.622 76.1335 339.113 75.8972 338.674 75.5585C338.07 75.0588 337.628 74.3094 336.958 73.9193C336.288 73.5292 335.587 73.5511 334.926 73.2837C334.512 73.1071 334.144 72.8397 333.849 72.5013C333.553 72.1629 333.337 71.7622 333.218 71.3289C333.202 71.2742 333.19 71.2186 333.183 71.1624C333.073 71.6516 333.085 72.1603 333.218 72.6438C333.337 73.0771 333.553 73.4778 333.849 73.8162C334.144 74.1546 334.512 74.422 334.926 74.5986C335.587 74.866 336.331 74.8704 336.958 75.2342C337.584 75.598 338.07 76.3737 338.674 76.8734C339.113 77.2121 339.622 77.4484 340.164 77.5652C340.705 77.682 341.266 77.6762 341.806 77.5484C342.886 77.2816 343.912 76.8277 344.836 76.2072C345.28 75.8714 345.813 75.6761 346.369 75.6462C346.746 75.7019 347.108 75.8379 347.429 76.045C348.206 76.4267 348.9 76.9567 349.474 77.6054C350.757 79.2095 350.591 81.6684 351.287 83.6802C351.414 84.044 351.624 84.4385 351.966 84.4779C352.176 84.479 352.38 84.4043 352.539 84.2675C353.081 83.8755 353.538 83.3787 353.884 82.8065C354.23 82.2343 354.458 81.5984 354.554 80.9364C354.633 80.428 354.641 79.9108 354.729 79.4024C354.84 78.8787 354.986 78.3632 355.167 77.8596C355.594 76.6792 355.791 75.4281 355.749 74.1735C355.741 74.1209 355.732 74.0595 355.723 73.9982Z" fill="black"/>
</g>
<path d="M328.015 109.167L327.717 113.169C327.673 113.713 326.635 126.651 318.98 141.773C312.411 154.742 299.628 171.634 275.493 181.128C273.61 181.873 271.655 182.568 269.629 183.214L267.369 176.114C273.043 174.327 278.507 171.934 283.669 168.978C295.971 161.869 305.536 151.722 312.205 138.665C315.744 131.713 318.266 124.289 319.694 116.619H292.235V109.167H328.015Z" fill="#B11E1E"/>
<path opacity="0.1" d="M272.537 181.132C296.667 171.639 309.455 154.751 316.02 141.781C323.675 126.66 324.717 113.73 324.757 113.178L325.054 109.176H328.12L327.822 113.178C327.783 113.721 326.74 126.66 319.085 141.781C312.516 154.751 299.733 171.639 275.603 181.132C273.719 181.877 271.763 182.574 269.734 183.223L269.436 182.289C270.493 181.912 271.527 181.527 272.537 181.132Z" fill="white"/>
<path d="M224.224 176.114L221.964 183.214C219.935 182.565 217.979 181.868 216.096 181.123C191.965 171.63 179.178 154.742 172.613 141.773C164.958 126.651 163.915 113.721 163.876 113.169L163.578 109.167H199.34V116.619H171.877C173.313 124.29 175.842 131.714 179.388 138.665C186.058 151.722 195.618 161.869 207.919 168.974C213.082 171.933 218.548 174.327 224.224 176.114Z" fill="#B11E1E"/>
<path opacity="0.1" d="M219.047 181.132C194.917 171.639 182.129 154.751 175.565 141.781C167.909 126.66 166.867 113.73 166.828 113.178L166.53 109.176H163.464L163.762 113.178C163.802 113.721 164.844 126.66 172.499 141.781C179.068 154.751 191.851 171.639 215.982 181.132C217.865 181.877 219.821 182.574 221.85 183.223L222.148 182.289C221.094 181.912 220.06 181.527 219.047 181.132Z" fill="white"/>
<path d="M287.107 244.751V284.93H204.482V244.751L207.109 241.245C233.885 231.734 239.311 206.93 240.392 197.117C240.553 195.761 240.645 194.397 240.668 193.032H250.885C250.908 194.397 251 195.761 251.161 197.117C252.261 206.93 257.687 231.743 284.444 241.245L287.107 244.751Z" fill="#B11E1E"/>
<path opacity="0.1" d="M287.107 244.751H204.482V249.792H287.107V244.751Z" fill="black"/>
<path opacity="0.1" d="M211.489 241.245C238.264 231.734 243.69 206.93 244.772 197.117C244.933 195.761 245.025 194.397 245.048 193.032H240.668C240.645 194.397 240.553 195.761 240.392 197.117C239.293 206.93 233.867 231.743 207.109 241.245L204.482 244.751V284.93H208.861V244.751L211.489 241.245Z" fill="white"/>
<path opacity="0.1" d="M191.93 109.167H199.34V116.619H192.587C192.322 114.164 192.103 111.68 191.93 109.167Z" fill="black"/>
<path opacity="0.1" d="M224.224 176.114L221.964 183.214C219.935 182.565 217.979 181.868 216.096 181.123C212.998 177.337 210.261 173.27 207.919 168.974C213.082 171.933 218.548 174.327 224.224 176.114Z" fill="black"/>
<path opacity="0.1" d="M267.365 176.114C273.038 174.327 278.503 171.934 283.665 168.978C281.322 173.275 278.585 177.344 275.489 181.132C273.606 181.877 271.651 182.573 269.625 183.218L267.365 176.114Z" fill="black"/>
<path opacity="0.1" d="M299.654 109.167C299.482 111.68 299.263 114.164 298.997 116.619H292.249V109.167H299.654Z" fill="black"/>
<path opacity="0.1" d="M251.179 197.117C247.622 197.807 243.966 197.807 240.41 197.117C240.571 195.761 240.663 194.397 240.686 193.032H250.903C250.926 194.397 251.018 195.761 251.179 197.117Z" fill="black"/>
<path d="M192.806 96.825C192.994 152.077 216.643 196.758 245.797 196.758C274.95 196.758 298.594 152.077 298.787 96.825H192.806Z" fill="#B11E1E"/>
<path opacity="0.1" d="M202.222 96.825H192.806C192.994 152.077 216.643 196.758 245.797 196.758C247.374 196.755 248.949 196.621 250.504 196.359C223.554 191.853 202.401 149.07 202.222 96.825Z" fill="white"/>
<path d="M273.895 260.131H217.694V274.595H273.895V260.131Z" fill="#3F3D56"/>
<path opacity="0.1" d="M220.322 262.104H273.895V260.131H217.694V274.595H220.322V262.104Z" fill="white"/>
<path d="M162.834 150.171C161.822 149.833 155.866 145.117 155.415 142.983C154.964 140.848 158.564 120.962 158.564 120.962C158.564 120.962 158.231 120.962 157.688 120.897V120.577L158.428 94.4539C158.428 94.4539 161.463 76.9218 155.73 77.9431C149.998 78.9643 153.593 94.4539 153.593 94.4539C153.593 94.4539 152.941 102.317 152.481 104.675C152.043 106.95 150.037 116.215 151.404 119.095C151.454 119.197 151.509 119.297 151.57 119.393C151.57 119.393 151.798 129.277 149.323 130.627C146.963 131.911 145.982 138.376 145.899 138.955L145.772 138.902C145.067 138.461 144.448 137.895 143.946 137.232C143.893 137.166 143.854 137.096 143.805 137.026C145.417 135.212 146.285 132.856 146.237 130.429C146.189 128.003 145.229 125.683 143.547 123.934C142.765 123.121 141.848 122.451 140.836 121.953C140.807 121.115 140.609 120.292 140.254 119.533C139.115 117.096 132.809 113.91 128.329 113.836C126.262 113.774 124.567 114.361 123.949 115.979C123.634 116.798 123.73 117.732 123.599 118.582C123.336 120.336 122.211 121.707 120.766 122.799C120.182 122.147 119.551 121.539 118.878 120.98C117.415 119.858 114.499 116.159 114.499 116.159C114.499 116.159 105.394 106.722 104.72 104.136C104.045 101.55 94.9492 86.021 92.9259 88.7253C90.9026 91.4296 99.8935 103.216 99.8935 103.216C99.8935 103.216 101.601 107.498 102.915 108.944C104.229 110.39 114.302 125.03 114.302 125.03L114.783 126.029C112.655 127.151 110.711 128.58 110.023 130.807C109.016 134.085 111.219 137.381 112.743 140.449C115.712 146.436 116.137 154.072 112.305 159.542C108.871 164.372 102.915 166.668 97.3403 168.676C100.033 170.792 103.377 171.903 106.8 171.818C105.512 175.553 100.949 176.789 97.06 177.481C99.1008 179.445 102.022 180.159 104.825 180.593C106.197 180.827 107.588 180.937 108.981 180.922H109.322L109.664 180.896C110.139 180.864 110.611 180.804 111.078 180.716C113.102 180.304 115.068 179.199 116.102 177.411C116.977 175.881 117.284 173.795 118.874 173.028C119.288 172.841 119.734 172.735 120.187 172.717H120.139C120.437 172.717 120.744 172.717 121.041 172.717L127.667 172.783C127.943 172.783 128.228 172.783 128.513 172.783C130.383 172.739 132.38 172.414 133.33 170.867C133.721 170.116 133.927 169.282 133.93 168.435C134.07 166.335 133.93 164.174 133.987 162.057C134.552 165.91 135.143 171.915 133.737 174.133C132.595 175.813 131.211 177.315 129.629 178.59C129.232 178.924 128.868 179.297 128.543 179.703C128.329 179.857 128.202 179.94 128.202 179.94L128.066 180.348C127.567 181.105 127.205 181.945 126.997 182.828C126.921 183.055 126.893 183.296 126.914 183.534C127.067 183.845 125.819 185.13 126.183 185.669C123.065 189.328 122.474 194.873 122.474 194.873L116.78 203.525C113.855 211.217 109.476 212.006 109.476 212.006C109.476 212.006 99.1884 205.098 98.9081 204.761C98.6278 204.424 94.6952 202.736 94.6952 202.736C94.2315 201.922 93.5236 201.275 92.6719 200.886C91.323 200.325 91.2092 198.257 91.2092 198.257C91.0428 193.37 88.1743 192.997 88.1743 192.997C85.862 192.8 84.0971 193.212 82.7395 193.966L82.3278 193.996C80.3396 194.159 77.9485 194.338 75.3208 194.514C68.0117 194.996 66.273 199.734 66.273 199.734C66.273 199.734 65.3753 200.746 66.5533 201.842C67.7314 202.938 75.2727 201.842 75.5923 201.816C75.0176 201.878 74.4364 201.838 73.8756 201.697C75.0624 201.653 76.6959 201.61 78.0886 201.61H78.4258C78.3381 202.349 78.2957 203.092 78.2988 203.836C78.2988 205.239 82.1745 206.137 82.1745 206.137L93.9769 216.656C93.9769 216.656 101.396 219.974 106.117 224.748C110.838 229.521 115.011 225.401 115.011 225.401C120.008 224.165 134.385 206.768 134.399 206.751C134.399 207.259 134.701 224.178 135.274 227.575C135.297 227.747 135.34 227.916 135.401 228.079C136.076 229.538 135.174 233.527 134.784 235.21C134.535 236.618 134.44 238.05 134.499 239.479C134.499 239.479 129.108 260.079 129.555 261.889C130.002 263.699 126.634 272.11 126.634 272.11V279.123L127.221 279.092C127.144 279.205 127.074 279.322 127.011 279.443L126.971 279.518C126.971 279.518 130.567 280.302 132.984 280.079C135.401 279.855 139.553 281.941 139.553 281.941C139.553 281.941 140.959 282.608 145.286 282.888C149.612 283.169 149.612 280.977 149.612 280.977C149.118 277.992 142.281 276.993 142.071 276.962C141.519 276.616 141.003 276.239 140.578 275.915L140.49 275.845C140.519 275.779 140.544 275.712 140.565 275.643C141.296 272.663 137.25 271.37 137.25 271.37V270.642C139.877 269.292 140.398 260.026 140.398 260.026C140.398 260.026 144.34 248.569 144.892 246.658C145.443 244.747 144.892 241.885 144.892 241.885L145.286 239.413C145.286 239.413 146.131 237.73 146.131 237.393C146.24 236.537 146.569 235.725 147.086 235.034C147.703 234.302 146.411 232.562 146.411 232.562L147.537 229.643V226.439L150.164 214.816C150.164 214.816 152.919 201.277 151.964 196.845C151.01 192.414 153.09 190.161 153.09 190.161C152.902 190.26 152.709 190.348 152.512 190.424C152.775 189.816 153.001 189.192 153.19 188.557L159.103 189.289V189.377H161.235C161.235 189.377 160.561 181.049 160.561 177.692C160.561 174.334 162.834 162.285 162.834 162.285C162.834 162.285 163.845 150.508 162.834 150.171ZM136.588 140.449C136.588 140.778 136.558 141.12 136.536 141.47L136.417 141.65L136.198 141.466L135.931 141.882L135.852 141.922C135.274 141.624 134.977 139.919 134.561 140.287L134.504 140.335C134.412 140.23 134.32 140.199 134.223 140.287L134.136 140.361C134.136 140.234 134.136 140.103 134.136 139.971C134.937 140.178 135.761 140.282 136.588 140.283C136.593 140.34 136.588 140.397 136.588 140.449ZM156.252 179.23H156.379L156.168 179.782C156.195 179.598 156.221 179.418 156.252 179.23ZM134.666 278.623L133.86 278.422L134.298 278.347L134.705 278.615L134.753 278.65L134.666 278.623ZM142.899 277.444C142.632 277.304 142.36 277.142 142.097 276.975C142.185 277.024 142.531 277.203 142.899 277.444Z" fill="url(#paint1_linear_19_2)"/>
<path d="M159.159 170.95L153.856 184.783H155.144L150.155 188.763L159.159 189.885V170.95Z" fill="#F86D70"/>
<path opacity="0.1" d="M159.159 170.95L153.856 184.783L152.52 184.424L150.155 188.763L159.159 189.885V170.95Z" fill="black"/>
<path d="M150.843 179.8H159.159L162.212 154.663H150.843V179.8Z" fill="#F86D70"/>
<path opacity="0.1" d="M150.843 179.8H159.159L162.212 154.663H150.843V179.8Z" fill="black"/>
<path d="M134.6 160.615L136.396 160.313L140.521 159.612C140.521 159.612 152.91 156.815 155.468 156.587C157.017 156.383 158.528 155.951 159.952 155.308C160.622 155.018 161.047 154.799 161.047 154.799L156.584 146.642L149.661 141.505C149.661 141.505 145.281 140.572 143.429 138.021C143.015 137.472 142.746 136.828 142.646 136.148C142.546 135.468 142.618 134.774 142.855 134.129C143.985 130.622 136.106 137.482 136.106 137.482C136.106 137.482 136.181 139.125 136.106 141.221C136.106 141.633 136.067 142.062 136.036 142.5C136.036 142.79 135.997 143.079 135.966 143.377C135.774 145.459 135.379 147.602 134.6 148.882C132.695 152.012 134.6 160.615 134.6 160.615Z" fill="#FBBEBE"/>
<path opacity="0.1" d="M136.106 141.396H136.282C136.597 141.396 136.851 140.725 137.158 140.695C139.623 140.458 141.874 139.941 143.438 138.192C143.025 137.643 142.757 137 142.656 136.321C142.556 135.642 142.628 134.949 142.864 134.304C143.994 130.798 136.115 137.653 136.115 137.653C136.115 137.653 136.198 139.301 136.106 141.396Z" fill="black"/>
<path d="M126.516 131.455C126.515 132.717 126.763 133.967 127.245 135.132C127.727 136.298 128.434 137.358 129.326 138.25C130.218 139.142 131.276 139.85 132.441 140.332C133.606 140.815 134.854 141.063 136.115 141.063C136.431 141.063 136.741 141.063 137.052 141.019C138.902 140.837 140.659 140.122 142.111 138.96C143.562 137.799 144.646 136.24 145.229 134.474C145.813 132.708 145.872 130.81 145.399 129.012C144.925 127.213 143.941 125.59 142.564 124.34C141.187 123.091 139.478 122.268 137.643 121.972C135.808 121.676 133.927 121.919 132.227 122.673C130.528 123.426 129.084 124.657 128.07 126.216C127.056 127.775 126.516 129.595 126.516 131.455Z" fill="#FBBEBE"/>
<path d="M123.568 116.873C123.253 117.688 123.349 118.6 123.222 119.463C122.754 122.58 119.587 124.447 116.723 125.753C113.859 127.059 110.627 128.606 109.716 131.617C108.718 134.874 110.899 138.139 112.414 141.194C115.366 147.146 115.786 154.738 111.976 160.182C108.591 165.003 102.692 167.291 97.1388 169.298C99.8114 171.402 103.133 172.509 106.533 172.428C105.258 176.14 100.726 177.372 96.8629 178.055C98.8906 180.01 101.794 180.72 104.575 181.15C106.603 181.465 108.683 181.671 110.706 181.264C112.729 180.856 114.648 179.756 115.69 177.977C116.566 176.456 116.864 174.382 118.444 173.615C119.158 173.334 119.927 173.222 120.691 173.287L127.26 173.357C129.305 173.357 131.727 173.199 132.783 171.45C133.172 170.703 133.376 169.873 133.378 169.031C133.663 164.718 132.835 160.16 134.609 156.224C135.143 155.036 131.714 153.156 132.073 151.898C133.308 147.572 133.619 144.166 133.606 139.665C133.606 136.18 135.87 133.178 137.74 130.237C139.61 127.296 141.173 123.583 139.698 120.428C138.033 116.908 125.535 111.793 123.568 116.873Z" fill="#3F3D56"/>
<path d="M132.314 277.361L133.987 278.47L134.245 278.641L134.293 278.672L136.277 279.987L140.911 280.767L144.983 280.486C144.983 280.486 146.157 278.032 144.313 278.089C143.723 278.058 143.147 277.892 142.632 277.602L142.378 277.475C142.111 277.335 141.843 277.177 141.581 277.01C141.033 276.664 140.516 276.287 140.1 275.967C139.487 275.494 139.08 275.135 139.08 275.135L132.314 277.361Z" fill="#FBBEBE"/>
<path opacity="0.1" d="M134.009 278.47L134.267 278.641L134.315 278.672L136.299 279.987L140.933 280.767L145.005 280.486C145.005 280.486 146.179 278.032 144.335 278.089C143.745 278.059 143.169 277.892 142.654 277.602C142.978 277.857 143.249 278.133 143.275 278.365C143.35 278.992 140.262 280.118 140.262 280.118L135.909 278.965C135.909 278.965 135.169 278.755 134.158 278.492L134.061 278.466L134.009 278.47Z" fill="black"/>
<path d="M126.564 279.539C126.564 279.539 130.133 280.32 132.533 280.096C134.933 279.873 139.067 281.941 139.067 281.941C139.067 281.941 140.464 282.599 144.76 282.879C149.056 283.16 149.056 280.977 149.056 280.977C148.566 278.01 141.778 277.032 141.568 276.989C141.651 277.032 142.005 277.212 142.365 277.453C142.846 277.769 143.367 278.181 143.407 278.514C143.481 279.136 140.394 280.267 140.394 280.267L136.041 279.119C136.041 279.119 135.301 278.904 134.289 278.641H134.193C132.693 278.232 131.169 277.917 129.629 277.699C127.755 277.497 126.796 279.092 126.599 279.452C126.585 279.48 126.573 279.509 126.564 279.539Z" fill="#3F3D56"/>
<path d="M70.3064 200.72L72.2027 202.175C72.2027 202.175 72.7545 202.149 73.5778 202.122H73.8406C75.0186 202.078 76.6434 202.035 78.0229 202.035C78.9146 201.994 79.8082 202.044 80.6899 202.184C81.6359 202.517 83.3175 196.766 83.3175 196.766L81.4169 196.328L80.7863 196.179L80.3483 196.074L78.8024 195.71L74.1165 196.245L70.8232 198.366L70.3064 200.72Z" fill="#FBBEBE"/>
<path opacity="0.1" d="M70.3064 200.72L72.2027 202.175C72.2027 202.175 72.7545 202.149 73.5778 202.122C73.2 201.976 72.8885 201.697 72.7019 201.338C71.4757 197.932 77.5587 196.477 77.5587 196.477L80.3921 196.354L80.9439 196.328H81.3819L80.7512 196.179L80.3133 196.074L78.7674 195.71L74.0814 196.245L70.7882 198.366L70.3064 200.72Z" fill="black"/>
<path d="M66.5664 202.258C67.7138 203.319 75.2288 202.258 75.5441 202.232C74.9738 202.296 74.3965 202.256 73.8406 202.114C73.5653 202.064 73.3045 201.954 73.0772 201.791C72.8499 201.628 72.6619 201.416 72.5267 201.171C71.3005 197.761 77.3835 196.31 77.3835 196.31L80.2169 196.188L80.7643 196.161L87.6531 195.863L87.9859 193.966C87.9859 193.966 85.7481 194.176 82.2358 194.456C80.2607 194.619 77.8564 194.798 75.2595 194.969C68.0029 195.451 66.2774 200.163 66.2774 200.163C66.2774 200.163 65.3971 201.171 66.5664 202.258Z" fill="#3F3D56"/>
<path d="M150.847 119.989C150.894 120.093 150.95 120.193 151.014 120.287L152.687 122.742L157.04 123.18L157.088 121.453L157.819 95.4707C157.819 95.4707 160.832 78.0439 155.139 79.0476C149.446 80.0513 153.02 95.4707 153.02 95.4707C153.02 95.4707 152.371 103.29 151.916 105.639C151.474 107.91 149.49 117.14 150.847 119.989Z" fill="#FBBEBE"/>
<path d="M141.077 184.525L142.316 186.646L145.089 191.393C145.089 191.393 150.116 193.238 151.404 191.831C152.109 191.064 152.871 188.386 153.405 186.133C153.843 184.31 154.136 182.771 154.136 182.771L141.077 184.525Z" fill="#FBBEBE"/>
<path opacity="0.1" d="M141.077 184.525L142.316 186.646C142.394 186.579 142.465 186.504 142.527 186.422C143.928 184.634 150.099 186.041 153.405 186.155C153.843 184.332 154.136 182.793 154.136 182.793L141.077 184.525Z" fill="black"/>
<path opacity="0.1" d="M78.0229 202.026C78.9146 201.986 79.8081 202.036 80.6899 202.175C81.6358 202.508 83.3175 196.758 83.3175 196.758L80.7862 196.161L87.675 195.863L88.0078 193.966C88.0078 193.966 85.77 194.176 82.2577 194.456C81.532 194.875 80.8844 195.416 80.3439 196.056L80.2388 196.188C78.7717 197.989 78.2287 200.312 78.0229 202.026Z" fill="black"/>
<path opacity="0.1" d="M132.314 277.361L134.245 278.641C137.127 278.119 139.759 277.3 140.07 276.011C140.071 275.991 140.071 275.97 140.07 275.95C139.457 275.476 139.049 275.117 139.049 275.117L132.314 277.361Z" fill="black"/>
<path opacity="0.1" d="M126.603 279.465C129.148 279.338 131.683 279.066 134.197 278.65C132.696 278.238 131.17 277.92 129.629 277.698C127.759 277.497 126.8 279.092 126.603 279.465Z" fill="black"/>
<path d="M78.2331 204.239C78.2331 205.637 82.0825 206.532 82.0825 206.532L93.8061 216.976C93.8061 216.976 101.172 220.272 105.858 225.019C110.544 229.766 114.678 225.69 114.678 225.69C119.644 224.462 133.947 207.145 133.947 207.145C133.947 207.145 134.28 226.921 134.95 228.372C135.62 229.823 134.727 233.789 134.337 235.468C134.091 236.868 133.997 238.291 134.057 239.711C134.057 239.711 128.701 260.21 129.148 261.999C129.594 263.787 126.244 272.167 126.244 272.167V279.149C126.244 279.149 139.36 278.645 140.083 275.687C140.806 272.728 136.794 271.44 136.794 271.44V270.712C139.422 269.371 139.917 260.158 139.917 260.158C139.917 260.158 143.827 248.762 144.383 246.864C144.94 244.966 144.383 242.113 144.383 242.113L144.773 239.658C144.773 239.658 145.61 237.98 145.61 237.647C145.719 236.796 146.046 235.988 146.56 235.302C147.173 234.574 145.89 232.843 145.89 232.843L147.007 229.937V226.755L149.634 215.192C149.634 215.192 152.371 201.728 151.421 197.314C150.471 192.9 152.538 190.669 152.538 190.669C148.058 193.019 145.798 187.79 145.058 185.541C144.87 184.963 144.778 184.577 144.778 184.577C144.778 184.577 138.625 182.307 132.896 182.85C131.733 182.945 130.587 183.188 129.485 183.573C123.122 185.866 122.119 195.359 122.119 195.359L116.482 203.963C113.579 211.616 109.226 212.396 109.226 212.396C109.226 212.396 99.0132 205.528 98.7154 205.19C98.4176 204.853 94.5287 203.179 94.5287 203.179C94.0689 202.369 93.3655 201.724 92.5186 201.338C91.1785 200.777 91.069 198.708 91.069 198.708C90.9026 193.847 88.056 193.448 88.056 193.448C78.1761 192.624 78.2331 202.845 78.2331 204.239Z" fill="#3F3D56"/>
<path d="M135.051 176.929H141.077V158.218H135.051V176.929Z" fill="#F86D70"/>
<path opacity="0.1" d="M135.051 176.929H141.077V158.218H135.051V176.929Z" fill="black"/>
<path opacity="0.1" d="M150.843 119.95C150.842 119.963 150.842 119.976 150.843 119.989C150.89 120.093 150.945 120.193 151.009 120.287L152.682 122.742L157.035 123.18L157.084 121.453C155.726 121.348 152.634 120.975 150.843 119.95Z" fill="black"/>
<path d="M151.014 120.287C151.014 120.287 151.237 130.114 148.78 131.455C146.324 132.796 145.369 139.783 145.369 139.783C145.369 139.783 152.814 144.683 154.474 146.84C156.133 148.996 159.943 154.133 159.159 155.36C158.376 156.587 161.06 162.176 161.06 162.176C161.06 162.176 156.146 172.23 157.263 176.03C158.38 179.831 158.489 189.881 158.489 189.881H160.613C160.613 189.881 159.943 181.614 159.943 178.261C159.943 174.908 162.172 162.956 162.172 162.956C162.172 162.956 163.18 151.227 162.172 150.894C161.165 150.561 155.253 145.867 154.806 143.741C154.36 141.615 157.933 121.826 157.933 121.826C157.933 121.826 153.357 121.629 151.014 120.287Z" fill="#F86D70"/>
<path opacity="0.1" d="M134.937 156.482C135.141 157.85 135.638 159.157 136.396 160.313L140.521 159.612C140.521 159.612 152.91 156.815 155.468 156.587C157.017 156.383 158.528 155.951 159.952 155.308C158.971 151.826 157.055 148.681 154.412 146.213L152.84 144.753C150.523 142.601 147.838 140.883 144.913 139.682C145.097 139.836 158.095 150.942 155.249 153.12C152.402 155.299 144.738 149.995 144.738 149.995L136.023 142.5L135.708 142.229L135.204 143.013C135.461 143.119 135.711 143.239 135.953 143.373C138.923 145.004 141.128 147.746 142.084 150.999C143.875 157.026 134.937 156.482 134.937 156.482Z" fill="black"/>
<path d="M132.257 184.411C132.257 184.411 140.516 188.991 142.522 186.422C142.96 185.857 143.884 185.611 145.036 185.546C144.848 184.967 144.756 184.581 144.756 184.581C144.756 184.581 138.603 182.311 132.874 182.855C132.498 183.801 132.257 184.411 132.257 184.411Z" fill="#444053"/>
<path d="M136.058 142.237L145.089 150.013C145.089 150.013 152.722 155.334 155.599 153.138C158.476 150.942 145.259 139.695 145.259 139.695C148.178 140.9 150.86 142.612 153.182 144.753L154.754 146.213C158.888 150.048 159.821 150.048 159.961 155.685C159.996 157.074 159.523 159.068 159.159 159.428C157.819 160.743 156.882 170.293 157.088 171.411C157.294 172.528 154.592 182.175 155.468 184.858C156.344 187.54 144.519 183.517 142.518 186.089C140.516 188.662 132.257 184.078 132.257 184.078C132.257 184.078 136.833 172.344 137.95 171.564C139.067 170.784 140.407 164.749 137.95 161.957C135.493 159.165 135.274 156.482 135.274 156.482C135.274 156.482 144.208 157.034 142.417 151.008C141.913 149.261 141.039 147.643 139.854 146.265C138.669 144.887 137.201 143.781 135.55 143.022L136.058 142.237Z" fill="#E8E8F0"/>
<path opacity="0.1" d="M148.11 162.013C148.11 162.013 144.646 168.548 140.166 170.245C140.022 170.297 139.881 170.346 139.728 170.389C135.051 171.814 148.461 164.038 148.11 162.013Z" fill="black"/>
<path d="M99.6657 104.197C99.6657 104.197 101.339 108.444 102.679 109.895C104.019 111.346 113.951 125.871 113.951 125.871L114.792 127.624L115.515 129.119L121.878 128.448L122.316 125.88L122.071 125.582C121.431 124.815 119.688 122.755 118.519 121.856C117.069 120.743 114.166 117.057 114.166 117.057C114.166 117.057 105.127 107.669 104.457 105.1C103.787 102.532 94.7433 87.1298 92.7376 89.7946C90.7318 92.4595 99.6657 104.197 99.6657 104.197Z" fill="#FBBEBE"/>
<g opacity="0.1">
<path opacity="0.1" d="M118.129 173.287C117.365 173.221 116.597 173.332 115.883 173.611C114.306 174.378 114.008 176.451 113.132 177.972C112.108 179.752 110.154 180.852 108.144 181.259C107.745 181.337 107.341 181.392 106.935 181.426C108.216 181.551 109.507 181.494 110.772 181.259C112.782 180.852 114.735 179.752 115.76 177.972C116.636 176.451 116.934 174.378 118.51 173.611C118.924 173.425 119.37 173.32 119.824 173.304L118.129 173.287Z" fill="black"/>
<path opacity="0.1" d="M133.685 139.664C133.685 136.18 135.949 133.178 137.814 130.237C139.68 127.296 141.248 123.583 139.772 120.427C138.511 117.732 130.908 114.116 126.52 114.83C130.816 115.387 136.111 118.218 137.144 120.427C138.62 123.583 137.052 127.296 135.187 130.237C133.321 133.178 131.048 136.18 131.057 139.664C131.057 144.161 130.755 147.554 129.52 151.897C129.165 153.147 132.585 155.036 132.06 156.219C130.282 160.164 131.114 164.713 130.829 169.026C130.823 169.869 130.618 170.698 130.229 171.446C129.353 172.888 127.558 173.26 125.811 173.339H127.339C129.38 173.339 131.802 173.181 132.857 171.433C133.245 170.685 133.451 169.856 133.457 169.013C133.742 164.7 132.909 160.146 134.688 156.206C135.222 155.023 131.793 153.138 132.147 151.884C133.382 147.571 133.693 144.161 133.685 139.664Z" fill="black"/>
</g>
<path opacity="0.1" d="M114.792 127.616L115.515 129.11L121.878 128.44L122.316 125.871L122.071 125.573C121.392 125.906 116.307 128.356 114.792 127.616Z" fill="black"/>
<path opacity="0.1" d="M138.287 144.416C138.287 144.416 136.724 141.961 135.831 142.628C134.937 143.294 134.591 140.616 134.079 141.063C133.566 141.51 132.073 142.755 131.451 141.015C130.965 139.63 125.675 130.868 123.529 127.344C122.977 126.432 122.631 125.871 122.631 125.871C122.631 125.871 116.605 128.887 115.156 127.883V130.005L116.382 130.118L122.951 142.391C122.951 142.391 125.018 145.683 124.878 146.831C124.738 147.979 127.527 153.007 127.974 153.34C128.421 153.673 133.229 159.261 133.229 159.261C133.229 159.261 135.686 171.328 133.562 174.681C131.438 178.034 127.759 180.488 127.759 180.488C127.759 180.488 126.651 183.727 126.813 184.065C126.975 184.402 125.526 185.853 126.196 186.3C126.866 186.747 127.759 189.872 127.759 189.872C127.759 189.872 130.886 184.845 132.577 184.065C134.267 183.284 136.431 173.002 136.431 173.002C136.431 173.002 137.048 166.944 137.096 163.035C137.144 159.125 136.947 144.416 138.287 144.416Z" fill="black"/>
<path d="M137.95 144.416C137.95 144.416 136.391 141.961 135.498 142.628C134.604 143.294 134.254 140.616 133.746 141.063C133.238 141.51 131.745 142.755 131.118 141.015C130.628 139.63 125.338 130.868 123.196 127.344L122.298 125.871C122.298 125.871 116.272 128.887 114.818 127.883V130.005L116.049 130.118L122.618 142.391C122.618 142.391 124.689 145.683 124.545 146.831C124.4 147.979 127.173 153.007 127.641 153.34C128.11 153.673 132.896 159.261 132.896 159.261C132.896 159.261 135.353 171.328 133.234 174.681C132.114 176.365 130.752 177.874 129.191 179.16C127.881 180.242 126.958 181.722 126.564 183.376C126.488 183.602 126.461 183.841 126.485 184.078C126.647 184.411 125.197 185.866 125.867 186.313C126.538 186.76 127.44 189.898 127.44 189.898C127.44 189.898 130.567 184.871 132.257 184.091C133.947 183.311 136.115 173.028 136.115 173.028C136.115 173.028 136.728 166.971 136.781 163.061C136.833 159.151 136.636 144.416 137.95 144.416Z" fill="#F86D70"/>
<path opacity="0.1" d="M122.657 195.25C122.657 195.25 127.348 196.126 129.226 197.481C131.105 198.835 122.084 195.359 122.084 195.359L122.657 195.25Z" fill="black"/>
<path opacity="0.1" d="M133.934 207.146C133.934 207.146 138.826 211.226 137.95 214.912C137.074 218.598 134.815 227.873 134.815 227.873L133.934 207.146Z" fill="black"/>
<path opacity="0.1" d="M91.1522 199.3C91.1522 199.3 84.2591 200.054 84.7058 200.948C85.1525 201.842 91.1522 200.124 91.1522 200.124V199.3Z" fill="black"/>
<path opacity="0.1" d="M144.081 233.233C144.081 233.233 144.519 233.79 141.962 233.233C139.404 232.676 141.292 230.958 141.292 230.958L144.081 233.233Z" fill="black"/>
<path opacity="0.1" d="M143.205 240.943C143.205 240.943 139.702 241.499 137.823 240.943C135.944 240.386 143.205 240.943 143.205 240.943Z" fill="black"/>
<path opacity="0.1" d="M135.997 271.106C135.997 271.106 135.384 270.436 132.314 271.663C129.244 272.89 128.018 272.947 127.124 272.54C126.231 272.132 135.997 271.106 135.997 271.106Z" fill="black"/>
<path opacity="0.1" d="M139.404 198.349L135.051 204.41C135.051 204.41 137.394 199.103 139.404 198.349Z" fill="black"/>
<path opacity="0.1" d="M130.943 142.627C130.943 142.627 130.755 144.639 127.948 145.424C125.141 146.208 124.606 146.844 124.606 146.844" fill="black"/>
<path opacity="0.1" d="M123.647 128.045C123.647 128.045 119.942 130.675 116.075 130.118L123.647 128.045Z" fill="black"/>
<path opacity="0.1" d="M126.467 184.354C126.467 184.354 127.549 185.033 130.146 182.062L126.467 184.354Z" fill="black"/>
<path opacity="0.1" d="M153.44 152.844C153.545 152.301 153.168 151.797 152.814 151.371L152.087 150.495C151.945 150.315 151.785 150.151 151.609 150.004C151.171 149.666 150.611 149.566 150.155 149.263" fill="black"/>
<path opacity="0.1" d="M388.577 0.0482962C388.577 0.0482962 351.707 -2.17827 356.043 23.6815C356.043 23.6815 355.167 28.2529 359.319 30.3261C359.319 30.3261 359.384 28.4107 363.102 29.0638C364.426 29.2834 365.771 29.3481 367.109 29.2567C368.918 29.1317 370.637 28.4209 372.006 27.2317C372.006 27.2317 382.372 22.9451 386.401 5.99166C386.401 5.99166 389.383 2.2924 389.265 1.34129L383.042 4.00177C383.042 4.00177 385.17 8.49435 383.48 12.2287C383.48 12.2287 383.278 4.16394 382.083 4.33926C381.842 4.37871 378.851 5.89523 378.851 5.89523C378.851 5.89523 382.507 13.7189 379.748 19.408C379.748 19.408 380.795 9.76542 377.708 6.46063L373.328 9.02032C373.328 9.02032 377.602 17.1026 374.703 23.699C374.703 23.699 375.448 13.583 372.404 9.6427L368.436 12.7415C368.436 12.7415 372.452 20.7098 370.004 26.1798C370.004 26.1798 369.685 14.4026 367.578 13.5129C367.578 13.5129 364.105 16.581 363.575 17.8345C363.575 17.8345 366.326 23.6201 364.618 26.6707C364.618 26.6707 363.571 18.8251 362.713 18.7813C362.713 18.7813 359.253 23.9795 358.894 27.5473C358.894 27.5473 359.043 22.2482 361.876 18.2904C361.876 18.2904 358.53 18.8645 356.577 21.0341C356.577 21.0341 357.116 17.3612 362.73 17.0412C362.73 17.0412 365.59 13.0965 366.352 12.8554C366.352 12.8554 360.773 12.3908 357.387 13.8898C357.387 13.8898 360.365 10.4229 367.377 12.0008L371.296 8.79678C371.296 8.79678 363.948 7.79307 360.829 8.90197C360.829 8.90197 364.416 5.83386 372.352 8.0692L376.617 5.51829C376.617 5.51829 370.35 4.16832 366.619 4.64169C366.619 4.64169 370.56 2.51593 377.87 4.82139L380.935 3.44951C380.935 3.44951 376.346 2.54661 375.001 2.40197C373.657 2.25733 373.587 1.88916 373.587 1.88916C376.494 1.4039 379.479 1.7362 382.21 2.84904C382.21 2.84904 388.691 0.455916 388.577 0.0482962Z" fill="#B11E1E"/>
<path opacity="0.1" d="M343.102 6.62705C343.102 6.62705 326.46 5.61896 328.409 17.3041C328.409 17.3041 328.019 19.3728 329.885 20.3108C329.885 20.3108 329.916 19.4342 331.597 19.7366C332.195 19.8372 332.802 19.8667 333.406 19.8243C334.223 19.7687 335 19.447 335.617 18.9082C335.617 18.9082 340.303 16.9753 342.125 9.31384C342.125 9.31384 343.47 7.63953 343.417 7.20999L340.606 8.41093C340.606 8.41093 341.569 10.4447 340.811 12.1321C340.811 12.1321 340.719 8.48545 340.181 8.57311C340.071 8.57311 338.718 9.27439 338.718 9.27439C338.718 9.27439 340.373 12.8115 339.125 15.3843C339.125 15.3843 339.598 11.0276 338.201 9.53299L336.222 10.6901C336.222 10.6901 338.157 14.3411 336.844 17.3216C336.844 17.3216 337.181 12.7501 335.806 10.9706L334.015 12.3863C334.015 12.3863 335.828 15.9892 334.724 18.4568C334.724 18.4568 334.58 13.1358 333.625 12.737C333.625 12.737 332.057 14.122 331.816 14.6918C331.816 14.6918 333.06 17.3216 332.289 18.6803C332.289 18.6803 331.816 15.1345 331.413 15.1213C331.413 15.1213 329.854 17.4706 329.688 19.066C329.766 17.5771 330.231 16.1343 331.037 14.8803C330.134 15.0513 329.302 15.4824 328.641 16.1206C328.641 16.1206 328.886 14.4639 331.422 14.3148C331.422 14.3148 332.736 12.5353 333.06 12.4258C333.06 12.4258 330.537 12.2154 329.009 12.8948C329.009 12.8948 330.353 11.3256 333.524 12.0182L335.276 10.5718C335.276 10.5718 331.956 10.1335 330.546 10.62C330.546 10.62 332.167 9.23494 335.753 10.243L337.68 9.0903C337.68 9.0903 334.851 8.47668 333.161 8.70021C333.161 8.70021 334.943 7.73596 338.245 8.77911L339.625 8.16111C339.625 8.16111 337.549 7.7491 336.94 7.68774C336.331 7.62638 336.301 7.45544 336.301 7.45544C337.615 7.23656 338.965 7.38833 340.198 7.89374C340.198 7.89374 343.154 6.81114 343.102 6.62705Z" fill="#B11E1E"/>
<path d="M401.234 285.228C410.959 285.228 418.843 283.894 418.843 282.248C418.843 280.602 410.959 279.268 401.234 279.268C391.508 279.268 383.624 280.602 383.624 282.248C383.624 283.894 391.508 285.228 401.234 285.228Z" fill="#B11E1E"/>
<path d="M408.516 277.374C409.32 276.719 409.906 275.834 410.194 274.837C410.413 273.833 409.984 272.645 409.02 272.255C407.943 271.843 406.791 272.592 405.92 273.346C405.048 274.1 404.045 274.964 402.906 274.802C403.493 274.268 403.932 273.592 404.181 272.838C404.429 272.085 404.479 271.28 404.325 270.502C404.276 270.179 404.139 269.876 403.931 269.625C403.331 268.985 402.25 269.257 401.531 269.761C399.254 271.365 398.619 274.464 398.606 277.247C398.378 276.244 398.571 275.196 398.567 274.179C398.562 273.162 398.277 271.988 397.406 271.449C396.869 271.159 396.264 271.017 395.654 271.037C394.634 270.997 393.491 271.102 392.795 271.852C391.919 272.781 392.151 274.341 392.904 275.358C393.657 276.375 394.809 277.028 395.869 277.734C396.717 278.24 397.44 278.93 397.984 279.754C398.05 279.869 398.103 279.991 398.142 280.118H404.562C405.998 279.386 407.328 278.463 408.516 277.374Z" fill="#B11E1E"/>
</g>
<defs>
<linearGradient id="paint0_linear_19_2" x1="354.077" y1="221.311" x2="354.077" y2="44.9829" gradientUnits="userSpaceOnUse">
<stop stop-color="#808080" stop-opacity="0.25"/>
<stop offset="0.54" stop-color="#808080" stop-opacity="0.12"/>
<stop offset="1" stop-color="#808080" stop-opacity="0.1"/>
</linearGradient>
<linearGradient id="paint1_linear_19_2" x1="17452.4" y1="109831" x2="39082.8" y2="109831" gradientUnits="userSpaceOnUse">
<stop stop-color="#808080" stop-opacity="0.25"/>
<stop offset="0.54" stop-color="#808080" stop-opacity="0.12"/>
<stop offset="1" stop-color="#808080" stop-opacity="0.1"/>
</linearGradient>
<clipPath id="clip0_19_2">
<rect width="501" height="286" fill="white"/>
</clipPath>
</defs>
</svg>
