<svg width="43" height="51" viewBox="0 0 43 51" fill="none" xmlns="http://www.w3.org/2000/svg">
<path d="M36.9878 20.3107C34.4165 20.2024 30.889 19.72 28.5366 18.7297C28.9616 17.0042 29.4291 14.2375 29.5503 13.2154C29.801 11.0755 27.2149 9.01213 23.5004 8.57438C17.5355 7.85825 16.4433 11.135 16.4433 11.135C12.1805 21.709 5.8735 22.7651 0 23.528V44.625C7.44387 44.625 11.866 46.1741 17.3591 48.5392C20.0302 49.6889 23.8468 51 28.6981 51C34.0914 51 37.825 48.8814 39.3423 43.1672C40.4048 39.1786 42.5 27.761 42.5 25.636C42.5 22.134 40.018 20.4382 36.9878 20.3107ZM25.9484 11.424C27.6016 12.2974 27.625 13.3471 25.7975 13.77C23.8956 14.212 21.3499 13.8444 20.0281 13.1495C18.5194 12.3569 18.547 11.2667 20.0515 10.8545C21.7472 10.3934 24.3716 10.591 25.9484 11.424ZM33.779 30.6361C33.779 30.6361 34.2061 30.6574 36.0506 30.5788C38.3499 30.481 38.284 33.7004 36.0591 33.9001L32.317 34.1105C30.7572 34.3102 30.923 36.6669 32.6166 36.601C32.6166 36.601 34.0744 36.5649 35.0455 36.5139C37.315 36.3949 37.2045 39.5505 35.1305 39.8097C34.2295 39.9224 31.4224 40.0541 31.4224 40.0541C29.699 40.2071 29.9221 42.6785 31.654 42.4787L33.2924 42.4129C35.0391 42.2556 35.4237 44.166 32.6719 45.9425C29.342 47.8146 22.7162 46.2209 19.0379 44.6378C14.28 42.5871 9.60712 40.528 4.25 40.375V27.625C9.51363 26.418 14.5244 24.2463 18.4896 16.9108C20.1301 17.7693 22.3359 18.1624 24.3143 18.0731C24.0656 19.1356 23.8021 20.1875 23.5429 21.2373C25.7975 22.3911 30.7062 24.2165 36.5479 24.5438C38.7897 24.6691 38.7239 27.6356 36.4395 27.9097L33.4772 28.2646C33.4772 28.2646 32.1852 30.6255 33.779 30.6361ZM25.5382 5.4315C25.4384 6.00737 24.8901 6.39838 24.31 6.30062C23.7341 6.205 23.341 5.6525 23.4409 5.0745L24.1528 0.884C24.2569 0.27625 24.7116 0 25.1749 0C25.7741 0 26.3819 0.461125 26.2501 1.23888L25.5382 5.4315ZM32.5444 4.3775C32.9715 3.978 32.9885 3.30437 32.589 2.87937C32.181 2.45012 31.5074 2.43313 31.0845 2.83475L27.9905 5.75025C27.5634 6.14975 27.5464 6.8255 27.9459 7.2505C28.3475 7.67762 29.0169 7.69887 29.4461 7.29513L32.5444 4.3775ZM19.6924 0.881875C19.4756 0.33575 18.8594 0.070125 18.3175 0.28475C17.7671 0.503625 17.5036 1.122 17.7183 1.66387L19.2886 5.61212C19.5054 6.15825 20.1216 6.42812 20.6656 6.20925C21.2139 5.99038 21.4795 5.372 21.2649 4.83012L19.6924 0.881875Z" fill="#B11E1E"/>
<ellipse cx="28.5" cy="32" rx="12.5" ry="12" fill="#B11E1E"/>
<ellipse cx="26.5" cy="36" rx="12.5" ry="12" fill="#B11E1E"/>
<ellipse cx="13.5" cy="33" rx="12.5" ry="12" fill="#B11E1E"/>
<ellipse cx="20" cy="28" rx="11" ry="12" fill="#B11E1E"/>
</svg>
