<svg width="41" height="54" viewBox="0 0 41 54" fill="none" xmlns="http://www.w3.org/2000/svg">
<path fill-rule="evenodd" clip-rule="evenodd" d="M32.5586 20.2297L41 24.6623L35.8499 29.1915L35.875 29.205L41 36.1575L35.875 38.9205V45.8865L20.5 54L5.125 45.8865V38.9317L0 36.1755L5.08856 29.2568L0 24.8333L8.53483 20.2365C8.28883 21.0713 8.08611 22.0545 7.97678 23.0985L3.94739 25.2675L6.63744 27.6075L8.05878 26.8313C8.18633 27.594 8.39133 28.3433 8.69428 29.0452L6.81967 30.0712L20.5501 37.1003L34.1667 30.0825L32.3171 29.0677C32.6474 28.395 32.8752 27.6773 33.0232 26.9438L34.2327 27.603L37.0435 25.1325L33.1553 23.0917C33.0414 22.0477 32.8228 21.0667 32.5586 20.2297ZM21.6298 38.718V50.8522L33.6018 44.5365V40.1468L25.625 44.4443L21.6298 38.718ZM7.4005 40.1558V44.5365L19.3566 50.8455V38.7225L15.375 44.4443L7.4005 40.1558ZM3.36428 35.424L14.6621 41.499L17.1653 37.9012L5.81517 32.0917L3.36428 35.424ZM23.8392 37.9215L26.3357 41.499L37.6334 35.4105L35.1894 32.0917L23.8392 37.9215ZM21.1082 34.1167H19.6846L19.6914 27.9788H21.115L21.1082 34.1167ZM18.4682 30.9128H17.0446L17.0651 27H18.4887L18.4682 30.9128ZM23.8392 30.8813H22.4133L22.3928 27H23.8164L23.8392 30.8813ZM16.7918 25.3283L16.0674 23.6768C14.4001 24.282 11.1588 28.8158 11.1588 28.8158C8.43689 22.95 11.5256 17.9122 13.9901 16.083C13.8011 14.5102 12.5232 6.705 20.4066 0.07875L20.5 0L20.5934 0.07875C28.4791 6.705 27.2012 14.5102 27.0099 16.083C29.4767 17.9122 32.5631 22.95 29.8412 28.8158C29.8412 28.8158 26.5999 24.282 24.9326 23.6768L24.2105 25.3283L20.5 25.3395L16.7918 25.3283ZM20.5 3.0105C18.0104 5.08725 14.9604 10.6447 16.277 17.0122C14.6233 18.3622 12.6781 20.2837 12.3774 23.9625C13.6917 22.23 15.6096 21.24 17.1403 20.9115C17.1403 20.9115 18.1061 22.671 18.2951 23.1007L20.5 23.1075L22.7072 23.1007C22.8962 22.671 23.862 20.9115 23.862 20.9115C25.3904 21.24 27.3083 22.23 28.6248 23.9625C28.3219 20.2837 26.4222 18.4005 24.7686 17.0505C26.1033 10.926 23.0124 5.13675 20.5296 3.03525L20.5 3.0105ZM20.3998 15.8197C19.7529 15.8175 19.2267 15.3 19.2267 14.6587C19.2267 14.0175 19.7529 13.5 20.3998 13.5C21.0467 13.5 21.5706 14.0175 21.5706 14.6587C21.5706 15.3 21.0467 15.8175 20.3998 15.8197ZM20.3998 11.6707C19.1037 11.6707 18.0559 10.6313 18.0537 9.351C18.0559 8.0685 19.1037 7.03125 20.3998 7.03125C21.6958 7.03125 22.7436 8.0685 22.7436 9.351C22.7436 10.6313 21.6958 11.6685 20.3998 11.6707ZM20.3998 8.44425C20.8872 8.44425 21.2836 8.83575 21.2836 9.3195C21.2836 9.80325 20.8872 10.1947 20.3998 10.1947C19.9101 10.1947 19.5137 9.80325 19.5137 9.3195C19.5137 8.83575 19.9101 8.44425 20.3998 8.44425Z" fill="white"/>
</svg>
