<svg width="41" height="41" viewBox="0 0 41 41" fill="none" xmlns="http://www.w3.org/2000/svg">
<path d="M35.4633 35.0174C31.4624 28.7598 25.9393 23.1308 25.6523 15.375H22.2083C22.5039 24.2788 28.208 29.9625 32.378 36.4832C32.6223 36.9991 32.2619 37.5833 31.734 37.5833H29.5747L21.4874 25.625H15.4741C16.9655 22.7806 18.6345 19.7928 18.7814 15.375H15.3477C15.059 23.136 9.50346 28.8093 5.53671 35.0174C5.25483 35.6102 5.125 36.2252 5.125 36.8231C5.125 39.0149 6.87262 41 9.26429 41H31.734C34.1257 41 35.875 39.0149 35.875 36.8214C35.875 36.2235 35.7452 35.6102 35.4633 35.0174ZM27.3333 8.54167C27.3333 10.4294 25.8027 11.9583 23.9167 11.9583C22.0307 11.9583 20.5 10.4294 20.5 8.54167C20.5 6.65396 22.0307 5.125 23.9167 5.125C25.8027 5.125 27.3333 6.65396 27.3333 8.54167ZM18.7917 5.97917C18.7917 7.39538 17.6437 8.54167 16.2292 8.54167C14.8147 8.54167 13.6667 7.39538 13.6667 5.97917C13.6667 4.56296 14.8147 3.41667 16.2292 3.41667C17.6437 3.41667 18.7917 4.56296 18.7917 5.97917ZM18.7917 11.9583C18.7917 12.9013 18.028 13.6667 17.0833 13.6667C16.1386 13.6667 15.375 12.9013 15.375 11.9583C15.375 11.0153 16.1386 10.25 17.0833 10.25C18.028 10.25 18.7917 11.0153 18.7917 11.9583ZM23.9167 1.70833C23.9167 2.65133 23.153 3.41667 22.2083 3.41667C21.2636 3.41667 20.5 2.65133 20.5 1.70833C20.5 0.765333 21.2636 0 22.2083 0C23.153 0 23.9167 0.765333 23.9167 1.70833Z" fill="#EEEEEE"/>
</svg>
